<svg xmlns="http://www.w3.org/2000/svg" viewBox="0 0 16 16"><defs><style>.cls-1{fill:#c29a00;}.cls-2{fill:#ffd73a;}.cls-3{fill:#fc0;}</style></defs><g id="Layer_2" data-name="Layer 2"><g id="Layer_1-2" data-name="Layer 1"><g id="Layer0_264_FILL" data-name="Layer0 264 FILL"><path class="cls-1" d="M0,8a8.1,8.1,0,0,0,2.3,5.7A7.76,7.76,0,0,0,8,16a7.93,7.93,0,0,0,5.7-2.3A8.1,8.1,0,0,0,16,8a8.1,8.1,0,0,0-2.3-5.7A7.69,7.69,0,0,0,8,0,8.1,8.1,0,0,0,2.3,2.3,8.1,8.1,0,0,0,0,8m3.8,4.2A5.76,5.76,0,0,1,2,8,5.6,5.6,0,0,1,3.8,3.8,6.17,6.17,0,0,1,8,2a5.6,5.6,0,0,1,4.2,1.8A6.17,6.17,0,0,1,14,8a5.6,5.6,0,0,1-1.8,4.2A6.17,6.17,0,0,1,8,14,5.6,5.6,0,0,1,3.8,12.2Z"/><path class="cls-2" d="M2,8a5.45,5.45,0,0,0,1.8,4.2A6.17,6.17,0,0,0,8,14a5.6,5.6,0,0,0,4.2-1.8A6.17,6.17,0,0,0,14,8a5.6,5.6,0,0,0-1.8-4.2A6.17,6.17,0,0,0,8,2,5.6,5.6,0,0,0,3.8,3.8,6,6,0,0,0,2,8m3.2,2.8a3.87,3.87,0,0,1,0-5.6,3.87,3.87,0,0,1,5.6,0,3.87,3.87,0,0,1,0,5.6,3.87,3.87,0,0,1-5.6,0Z"/><path class="cls-3" d="M4,8a3.78,3.78,0,0,0,1.2,2.8,3.87,3.87,0,0,0,5.6,0,3.87,3.87,0,0,0,0-5.6,3.87,3.87,0,0,0-5.6,0A3.78,3.78,0,0,0,4,8Z"/></g></g></g></svg>