<svg xmlns="http://www.w3.org/2000/svg" viewBox="0 0 44.87 38.69"><defs><style>.cls-1{fill:#229c56;}.cls-2{fill:#2ecc71;}.cls-3{fill:#29b866;}</style></defs><g id="Layer_2" data-name="Layer 2"><g id="Layer_1-2" data-name="Layer 1"><g id="Layer0_220_FILL" data-name="Layer0 220 FILL"><path class="cls-1" d="M.91,11.36a1.78,1.78,0,0,0-.8,1.1,1.72,1.72,0,0,0,.1,1.4c3.5,7.1,9.3,11.4,17.6,12.9a9.06,9.06,0,0,0,2.3.1,22.74,22.74,0,0,0,16,11.8,2.2,2.2,0,0,0,1.4-.2,2.44,2.44,0,0,0,.9-1.1,22.23,22.23,0,0,0-.7-17A22.49,22.49,0,0,0,44.81,2a1.61,1.61,0,0,0-.6-1.3,1.76,1.76,0,0,0-1.3-.6c-7.9-.5-14.6,2.4-20,8.8h0c-.1.1-.2.1-.2.2s-.2-.1-.3-.1l.1.1c-7.8-2.9-15-2.1-21.6,2.3m20.9-.5a8.86,8.86,0,0,1,1.7.8,7,7,0,0,1,1-1.6Q31.86,1.21,42.81,2c.5,7.1-2.1,13-7.6,17.8a20.54,20.54,0,0,1,1.2,16.8c-7-1.4-12.1-5.4-15.3-12.1a6.37,6.37,0,0,1-3.1.2c-7.6-1.3-13-5.3-16.2-11.8C8,9,14.61,8.26,21.81,10.86Z"/><path class="cls-2" d="M34.71,20.36c-2.3,1.9-4.8,2-7.5.2l9.3,16.1a20.54,20.54,0,0,0-1.2-16.8,2.65,2.65,0,0,1-.6.5m-11.2-8.6a6.71,6.71,0,0,0-1.7-.8Q11,7.06,2,13.06l23.6,6.3,17.2-17.2q-11-.75-18.3,8.1A4,4,0,0,0,23.51,11.76Z"/><path class="cls-3" d="M27.21,20.56c2.7,1.8,5.2,1.7,7.5-.2.2-.1.3-.3.5-.5a21,21,0,0,0,7.6-17.8l-17.2,17.2L2,13c3.2,6.5,8.6,10.5,16.2,11.8a6.46,6.46,0,0,0,3.1-.2,21.14,21.14,0,0,0,15.3,12.1Z"/></g></g></g></svg>