<svg xmlns="http://www.w3.org/2000/svg" viewBox="0 0 64 64"><defs><style>.cls-1{fill:#229c56;}.cls-2{fill:#2ecc71;}.cls-3{fill:#2bbf6a;}</style></defs><g id="Layer_2" data-name="Layer 2"><g id="Layer_1-2" data-name="Layer 1"><g id="Layer0_221_FILL" data-name="Layer0 221 FILL"><path class="cls-1" d="M54.6,9.4h0A30.58,30.58,0,0,0,32,0,30.8,30.8,0,0,0,9.3,9.4,30.71,30.71,0,0,0,0,32,30.87,30.87,0,0,0,9.3,54.6v.1A31.1,31.1,0,0,0,32,64a31,31,0,0,0,22.6-9.3h.1A31.1,31.1,0,0,0,64,32,30.42,30.42,0,0,0,54.6,9.4M32,2a28.77,28.77,0,0,1,21.2,8.8A28.61,28.61,0,0,1,62,32a28.61,28.61,0,0,1-8.8,21.2A29.16,29.16,0,0,1,32,62a28.61,28.61,0,0,1-21.2-8.8A29.16,29.16,0,0,1,2,32a28.61,28.61,0,0,1,8.8-21.2A28.61,28.61,0,0,1,32,2Z"/><path class="cls-2" d="M53.2,10.8A28.77,28.77,0,0,0,32,2a28.61,28.61,0,0,0-21.2,8.8A29,29,0,0,0,2,32a28.61,28.61,0,0,0,8.8,21.2A29.32,29.32,0,0,0,32,62a28.77,28.77,0,0,0,21.2-8.8A28.77,28.77,0,0,0,62,32a28.61,28.61,0,0,0-8.8-21.2m3.5,10.3-.6.9A25.45,25.45,0,0,1,58,32a25.21,25.21,0,0,1-7.6,18.5A25.29,25.29,0,0,1,32,58a28.51,28.51,0,0,1-9.4-1.6,4.7,4.7,0,0,1-1.2.9,2.18,2.18,0,0,1-2.4.3c-.6-.3-.9-1-.8-2.1a4.3,4.3,0,0,1,.2-1.2,23.75,23.75,0,0,1-4.7-3.8A25.21,25.21,0,0,1,6.1,32a25,25,0,0,1,7.6-18.4A25,25,0,0,1,32.1,6a25.38,25.38,0,0,1,18.4,7.6A24.77,24.77,0,0,1,54.1,18a2,2,0,0,1,.8-.1,2,2,0,0,1,2.2.9c.3.6.1,1.3-.4,2.3M25.9,12.2a2.09,2.09,0,0,0-1.2,1.7,4.19,4.19,0,0,0-.1,1.6,10.93,10.93,0,0,0-1.5.8,12.86,12.86,0,0,0-4.6,3.8A19.41,19.41,0,0,0,16.4,23a5.07,5.07,0,0,0-1.3.2c-1.3.3-2,.9-2.2,1.8s.1,1.6,1.1,2.5c.2.2.4.3.6.5a17.52,17.52,0,0,0-.4,4,18,18,0,0,0,5.2,12.8h0A17.43,17.43,0,0,0,32.2,50,18.51,18.51,0,0,0,41,47.8a10,10,0,0,0,1.4.8c1.1.5,1.8.5,2.3,0a2.18,2.18,0,0,0,.6-2.3,7.37,7.37,0,0,0-.4-1.4,17.43,17.43,0,0,0,5.2-12.8,17.92,17.92,0,0,0-18-18,18.41,18.41,0,0,0-3.3.3,6.22,6.22,0,0,0-.8-1.2c-.8-.8-1.4-1.1-2.1-1M24.9,25A10,10,0,0,1,30,22.2a16.12,16.12,0,0,1,3.8-.1,10,10,0,0,1,4.8,2.2,11.63,11.63,0,0,1,1.8-.4c1.1-.1,1.9.2,2.2.9.4.5.2,1.3-.3,2.3a8.34,8.34,0,0,1-.8,1.2,10.3,10.3,0,0,1,.6,3.5,9.62,9.62,0,0,1-2.5,6.7c-.2.1-.3.3-.4.4a10,10,0,0,1-3.3,2.2,1.42,1.42,0,0,1-.2.6c-.3,1.1-.8,1.7-1.6,1.8-.6.1-1.3-.2-2.1-1.1a2.09,2.09,0,0,1-.4-.6A9.58,9.58,0,0,1,25,38.9h0a9.9,9.9,0,0,1-2.9-7.1A9,9,0,0,1,24.9,25Z"/><path class="cls-3" d="M56.1,22l.6-.9c.6-1,.7-1.8.3-2.3a2.12,2.12,0,0,0-2.2-.9,2.2,2.2,0,0,0-.8.1,24.77,24.77,0,0,0-3.6-4.4A25,25,0,0,0,32,6a25.38,25.38,0,0,0-18.4,7.6A24.83,24.83,0,0,0,6,32a25.21,25.21,0,0,0,7.6,18.5,28,28,0,0,0,4.7,3.8,5,5,0,0,0-.2,1.2c0,1.2.2,1.9.8,2.1a2.18,2.18,0,0,0,2.4-.3l1.2-.9A26.14,26.14,0,0,0,31.9,58a25.29,25.29,0,0,0,18.4-7.5A25.21,25.21,0,0,0,57.9,32a23.73,23.73,0,0,0-1.8-10M24.7,14a2.09,2.09,0,0,1,1.2-1.7,1.94,1.94,0,0,1,1.9.9,3.6,3.6,0,0,1,.8,1.2,18.41,18.41,0,0,1,3.3-.3,17.68,17.68,0,0,1,12.8,5.3,17.2,17.2,0,0,1,5.2,12.7,17.82,17.82,0,0,1-5.2,12.8,7.37,7.37,0,0,1,.4,1.4c.2,1.1,0,1.9-.6,2.3s-1.3.5-2.3,0a6.38,6.38,0,0,1-1.4-.8A17.43,17.43,0,0,1,32,50a17.59,17.59,0,0,1-12.8-5.2h0A17.43,17.43,0,0,1,14,32a17.52,17.52,0,0,1,.4-4c-.2-.2-.4-.3-.6-.5A2.56,2.56,0,0,1,12.7,25c.2-.8,1-1.4,2.2-1.8a5.85,5.85,0,0,1,1.3-.2,19.41,19.41,0,0,1,2.1-2.9,14,14,0,0,1,4.6-3.8,10.93,10.93,0,0,1,1.5-.8l.3-1.5M30,22.2A9.29,9.29,0,0,0,24.9,25,9.67,9.67,0,0,0,22,32a10.07,10.07,0,0,0,2.9,7.1h0A9.58,9.58,0,0,0,31.5,42c.1.2.3.4.4.6A2.24,2.24,0,0,0,34,43.7c.8-.1,1.3-.7,1.6-1.8.1-.2.1-.4.2-.6a10,10,0,0,0,3.3-2.2c.1-.1.2-.3.4-.4A9.62,9.62,0,0,0,42,32a9.89,9.89,0,0,0-.6-3.5,8.34,8.34,0,0,0,.8-1.2c.6-1,.7-1.8.3-2.3a2,2,0,0,0-2.2-.9,3.92,3.92,0,0,0-1.8.4,8.84,8.84,0,0,0-4.8-2.2A9.18,9.18,0,0,0,30,22.2Z"/></g></g></g></svg>