<svg xmlns="http://www.w3.org/2000/svg" viewBox="0 0 64.1 63.9"><defs><style>.cls-1{fill:#229c56;}.cls-2{fill:#29b866;}.cls-3{fill:#2ecc71;}.cls-4{fill:#31d978;}</style></defs><g id="Layer_2" data-name="Layer 2"><g id="Layer_1-2" data-name="Layer 1"><g id="Layer0_219_FILL" data-name="Layer0 219 FILL"><path class="cls-1" d="M61,22.4a26.42,26.42,0,0,0,.2-2.9,16.16,16.16,0,0,0-5-11.9,16.1,16.1,0,0,0-11.8-5h0a13.42,13.42,0,0,0-3.5.4,15.67,15.67,0,0,0-9-3h-.1a14.89,14.89,0,0,0-9,2.9,13.7,13.7,0,0,0-3.6-.4A16.39,16.39,0,0,0,7.3,7.4,16.15,16.15,0,0,0,2.5,19.2a15.53,15.53,0,0,0,.3,3.1v-.1a1.42,1.42,0,0,0,.2.6c-.2.2-.3.4-.5.6h0A13.39,13.39,0,0,0,.2,29.8a12.31,12.31,0,0,0-.2,2,15.26,15.26,0,0,0,.3,3v-.1A10.27,10.27,0,0,0,1,37.2a13,13,0,0,0,2,3.6,20,20,0,0,0-.4,2.4v1.2h0a16.33,16.33,0,0,0,5,11.9,16.17,16.17,0,0,0,11.8,4.9,20.16,20.16,0,0,0,3.6-.3,14.84,14.84,0,0,0,9.1,3A14.36,14.36,0,0,0,41.2,61c1.1.2,2.2.3,3.4.4h.1a15.85,15.85,0,0,0,11.8-4.9h0a15.85,15.85,0,0,0,4.9-11.8V43.6c-.1-.8-.2-1.6-.3-2.3A14.79,14.79,0,0,0,63,37.8h0a9,9,0,0,0,.8-2.8v.1a15.26,15.26,0,0,0,.3-3,11.48,11.48,0,0,0-.1-1.9,14.72,14.72,0,0,0-2.7-6.9l-.1-.1c-.1-.1-.1-.2-.2-.2v-.6m-1.8-2.9a21.12,21.12,0,0,1-.2,2.6c-.1.4-.2.9-.3,1.3a10.47,10.47,0,0,1,.8,1.1,13.13,13.13,0,0,1,2.4,6,8.6,8.6,0,0,1,.1,1.6,21.12,21.12,0,0,1-.2,2.6,10.88,10.88,0,0,1-.7,2.4,13.79,13.79,0,0,1-2.3,3.8,10.47,10.47,0,0,1,.5,3v.9A13.88,13.88,0,0,1,55,55.2a14.13,14.13,0,0,1-10.4,4.4,13.36,13.36,0,0,1-4-.6A12.64,12.64,0,0,1,32,62.1a13.17,13.17,0,0,1-8.7-3.2,17,17,0,0,1-4.1.5A14.2,14.2,0,0,1,8.8,55.1,14.75,14.75,0,0,1,4.4,44.6v-1a15.44,15.44,0,0,1,.5-3.1,11.38,11.38,0,0,1-2.2-3.8,8.3,8.3,0,0,1-.6-2.1A11,11,0,0,1,1.9,32a5.54,5.54,0,0,1,.2-1.8A12.08,12.08,0,0,1,4,24.7a10.59,10.59,0,0,1,1-1.2L4.7,22a12.41,12.41,0,0,1-.3-2.7A14.51,14.51,0,0,1,19.1,4.6a17.71,17.71,0,0,1,4.1.5,13.65,13.65,0,0,1,17.2.1,12.45,12.45,0,0,1,4-.6A14,14,0,0,1,54.8,9,14,14,0,0,1,59.2,19.5Z"/><path class="cls-2" d="M32.1,54.9a13.54,13.54,0,0,1-9.2-3.5,14.9,14.9,0,0,1-4.3.6A15.2,15.2,0,0,1,7.5,47.3a20.17,20.17,0,0,1-2.9-3.8v1A14.35,14.35,0,0,0,9,55a14.2,14.2,0,0,0,10.4,4.3,17.71,17.71,0,0,0,4.1-.5A13.17,13.17,0,0,0,32.2,62a12.64,12.64,0,0,0,8.6-3.1,25.68,25.68,0,0,0,4,.6,14.13,14.13,0,0,0,10.4-4.4,13.88,13.88,0,0,0,4.3-10.4v-.9a15.89,15.89,0,0,1-2.8,3.6A14.79,14.79,0,0,1,45.6,52a18.59,18.59,0,0,1-4.2-.5A13.88,13.88,0,0,1,32.1,54.9Z"/><path class="cls-3" d="M59,22.1a21.12,21.12,0,0,0,.2-2.6A14.35,14.35,0,0,0,54.8,9,14.13,14.13,0,0,0,44.4,4.6a13.36,13.36,0,0,0-4,.6,13.65,13.65,0,0,0-17.2-.1,13.57,13.57,0,0,0-4.1-.5A14.51,14.51,0,0,0,4.4,19.3,12.41,12.41,0,0,0,4.7,22L5,23.5c-.3.4-.7.8-1,1.2a12.08,12.08,0,0,0-1.9,5.5A11,11,0,0,0,1.9,32a22.75,22.75,0,0,0,.2,2.6,8.3,8.3,0,0,0,.6,2.1,13.39,13.39,0,0,0,2.2,3.8,15.44,15.44,0,0,0-.5,3.1,14.77,14.77,0,0,0,2.9,3.8,15.2,15.2,0,0,0,11.1,4.7,14.9,14.9,0,0,0,4.3-.6A14,14,0,0,0,31.9,55a13.45,13.45,0,0,0,9.2-3.4,18.59,18.59,0,0,0,4.2.5,14.79,14.79,0,0,0,11.1-4.6,15.89,15.89,0,0,0,2.8-3.6c-.1-1-.3-2-.5-3A12.48,12.48,0,0,0,61,37.1a12.36,12.36,0,0,0,.9-5,8.08,8.08,0,0,0-.1-1.6,13.13,13.13,0,0,0-2.4-6,7.63,7.63,0,0,1-.8-1.1,2.2,2.2,0,0,0,.4-1.3M24.5,10.9A6.16,6.16,0,0,1,26,13.8h0v.1a3,3,0,0,1-.2,1.6,2.05,2.05,0,0,1-1.5,1,2.11,2.11,0,0,1-2.8-1.3l-.1-.1h0a7,7,0,0,1-.1-3.2,2.09,2.09,0,0,1,1.2-1.7c.7-.3,1.3-.1,2,.7m-6.8,3.6h0a2.43,2.43,0,0,1,1.7,1.4,3,3,0,0,1,.4,2.4,4,4,0,0,1-1.5,1.9,3.36,3.36,0,0,1-2.2.4H16a8.25,8.25,0,0,1-3.7-2,2.56,2.56,0,0,1-1.1-2.5c.2-.8,1-1.4,2.2-1.8a8.74,8.74,0,0,1,4.2.2c0-.1,0,0,.1,0m1,7.4a2.26,2.26,0,0,1,1.8-.1A2.76,2.76,0,0,1,22.1,23a2.06,2.06,0,0,1,.2,2,1.92,1.92,0,0,1-1.1,1.5v.1l-.1.1a7.13,7.13,0,0,1-3.5,1.1c-1.1,0-1.9-.3-2.2-.9s-.2-1.4.4-2.4A7.29,7.29,0,0,1,18.5,22h0c.1-.1.1-.1.2-.1M48.6,36h0c.1.1.1.1.1.2a7.16,7.16,0,0,1,2,3.1,2,2,0,0,1-.4,2.4c-.5.5-1.2.6-2.3.2a7.16,7.16,0,0,1-3.1-2h-.1v-.1a2.79,2.79,0,0,1-.6-1.8,2.73,2.73,0,0,1,.8-1.9,2.5,2.5,0,0,1,1.8-.8,4.84,4.84,0,0,1,1.8.7m-9.8,4.8a3,3,0,0,1,2.2-1,3.21,3.21,0,0,1,2.2,1,2.52,2.52,0,0,1,.9,2l.1.1V43a8.57,8.57,0,0,1-.9,4.1c-.6,1.2-1.4,1.8-2.2,1.8s-1.6-.6-2.3-1.8A8.59,8.59,0,0,1,38,43v-.3A2.56,2.56,0,0,1,38.8,40.8Z"/><path class="cls-4" d="M41,39.8a2.87,2.87,0,0,0-2.2,1,3.1,3.1,0,0,0-.9,1.9V43a10,10,0,0,0,.8,4.1A3.25,3.25,0,0,0,41,48.9c.8,0,1.6-.5,2.2-1.8a8.57,8.57,0,0,0,.9-4.1v-.1c0-.1,0-.1-.1-.1a2.52,2.52,0,0,0-.9-2,2.39,2.39,0,0,0-2.1-1m7.7-3.7h0a2.33,2.33,0,0,0-1.8-.6,2.5,2.5,0,0,0-1.8.8,2.56,2.56,0,0,0-.8,1.9,2.79,2.79,0,0,0,.6,1.8v.1H45a8.21,8.21,0,0,0,3.1,2c1.1.3,1.8.3,2.3-.2s.7-1.3.4-2.4a7.16,7.16,0,0,0-2-3.1.77.77,0,0,1-.1-.3M20.5,21.8a2.7,2.7,0,0,0-1.8.1c-.1,0-.1,0-.2.1h0a7.29,7.29,0,0,0-2.7,2.5c-.6,1-.8,1.8-.4,2.4a2,2,0,0,0,2.2.9,7.13,7.13,0,0,0,3.5-1.1l.1-.1v-.1A2.17,2.17,0,0,0,22.3,25a2.75,2.75,0,0,0-.2-2,2.2,2.2,0,0,0-1.6-1.2m-2.7-7.3h0c-.1,0-.2,0-.2-.1a8.66,8.66,0,0,0-4.2-.2c-1.3.3-2,.9-2.2,1.8s.1,1.6,1.1,2.5a8.25,8.25,0,0,0,3.7,2h.1a3.36,3.36,0,0,0,2.2-.4,3.24,3.24,0,0,0,1.5-1.9,3,3,0,0,0-.4-2.4,2.56,2.56,0,0,0-1.6-1.3m8.2-.8a6.68,6.68,0,0,0-1.5-2.9,2.15,2.15,0,0,0-1.9-.9,2.09,2.09,0,0,0-1.2,1.7,7,7,0,0,0,.1,3.2h0l.1.1a2.34,2.34,0,0,0,1,1.2,1.88,1.88,0,0,0,1.8.1,2.52,2.52,0,0,0,1.5-1,1.87,1.87,0,0,0,.2-1.6c-.1.2-.1.2-.1.1Z"/></g></g></g></svg>