<svg xmlns="http://www.w3.org/2000/svg" viewBox="0 0 31 30.7"><defs><style>.cls-1{fill:#229c56;}.cls-2{fill:#29b866;}.cls-3{fill:#2ecc71;}.cls-4{fill:#31d978;}</style></defs><g id="Layer_2" data-name="Layer 2"><g id="Layer_1-2" data-name="Layer 1"><g id="Layer0_2_FILL" data-name="Layer0 2 FILL"><path class="cls-1" d="M3.6,3.5a8.16,8.16,0,0,0-2.5,6A7.57,7.57,0,0,0,1.2,11,7.65,7.65,0,0,0,.1,14.2a3.4,3.4,0,0,0-.1,1,3.89,3.89,0,0,0,.2,1.5v.1A5.64,5.64,0,0,0,.6,18v.1a9.14,9.14,0,0,0,.7,1.4c0,.2-.1.5-.1.8v.6A8.07,8.07,0,0,0,3.7,27h0a8.22,8.22,0,0,0,6.1,2.5,5.28,5.28,0,0,0,1.3-.1,8.32,8.32,0,0,0,4.3,1.3h.1a8,8,0,0,0,4.3-1.2,5.7,5.7,0,0,0,1.3.1A8.37,8.37,0,0,0,29.7,21v-.6c0-.2-.1-.5-.1-.6.2-.4.5-.8.7-1.2l.1-.1a5.73,5.73,0,0,0,.4-1.4v-.3a6.75,6.75,0,0,0,.2-1.4,3.08,3.08,0,0,0-.1-1A8.3,8.3,0,0,0,29.6,11V9.8a8.62,8.62,0,0,0-2.5-6.1h0a8.45,8.45,0,0,0-6.2-2.5,5.7,5.7,0,0,0-1.3.1A8,8,0,0,0,15.4,0h0A7.58,7.58,0,0,0,11,1.3a5.7,5.7,0,0,0-1.3-.1A7.38,7.38,0,0,0,3.6,3.5m-.5,6A6,6,0,0,1,5,4.9,6.41,6.41,0,0,1,9.7,3a11,11,0,0,1,1.8.2,6,6,0,0,1,3.9-1.4,5.2,5.2,0,0,1,3.8,1.5A5.54,5.54,0,0,1,21,3.1a6.5,6.5,0,0,1,6.7,6.7,3.75,3.75,0,0,1-.1,1.1,1.42,1.42,0,0,1-.2.6,2.18,2.18,0,0,1,.4.5,5.36,5.36,0,0,1,1.1,2.7c0,.2.1.5.1.8a2.54,2.54,0,0,1-.2,1.2,1.69,1.69,0,0,1-.3,1,6.19,6.19,0,0,1-1.1,1.7,6.75,6.75,0,0,1,.2,1.4v.4a6.26,6.26,0,0,1-1.9,4.7,6.51,6.51,0,0,1-4.7,2,11,11,0,0,1-1.8-.2,5.94,5.94,0,0,1-3.8,1.4,6,6,0,0,1-4-1.5,5.54,5.54,0,0,1-1.8.2,6.51,6.51,0,0,1-4.7-2A6.26,6.26,0,0,1,3,21.1v-.5a5.9,5.9,0,0,1,.2-1.4,4.69,4.69,0,0,1-1-1.6c-.1-.3-.2-.7-.3-1a4.87,4.87,0,0,1-.1-1.2,2.2,2.2,0,0,1,.1-.8,5,5,0,0,1,.9-2.4c.1-.2.3-.4.4-.6A1.07,1.07,0,0,0,3,11,8.08,8.08,0,0,0,3.1,9.5Z"/><path class="cls-2" d="M3.2,20.4v.5a6.26,6.26,0,0,0,1.9,4.7,6.51,6.51,0,0,0,4.7,2,11,11,0,0,0,1.8-.2,7,7,0,0,0,4,1.5,5.75,5.75,0,0,0,3.8-1.4,5,5,0,0,0,1.8.2,6.51,6.51,0,0,0,4.7-2A6.26,6.26,0,0,0,27.8,21v-.4a9.55,9.55,0,0,1-1.2,1.6,6.72,6.72,0,0,1-5,2.1,9,9,0,0,1-1.8-.2,6.29,6.29,0,0,1-4.1,1.5,6.36,6.36,0,0,1-4.2-1.5,5.84,5.84,0,0,1-1.9.2,6.57,6.57,0,0,1-5-2.1A4,4,0,0,1,3.2,20.4Z"/><path class="cls-3" d="M5,4.9A6.19,6.19,0,0,0,3.1,9.5a4.48,4.48,0,0,0,.1,1.2c.1.2.1.4.2.6-.1.2-.3.4-.4.6a5.91,5.91,0,0,0-.9,2.4c0,.3-.1.5-.1.8a4.87,4.87,0,0,0,.1,1.2c.1.3.2.6.3,1a3.91,3.91,0,0,0,1,1.6,5.9,5.9,0,0,0-.2,1.4A10.38,10.38,0,0,0,4.4,22a6.88,6.88,0,0,0,5,2.1,11.08,11.08,0,0,0,1.9-.2,6.36,6.36,0,0,0,4.2,1.5,6.29,6.29,0,0,0,4.1-1.5,11,11,0,0,0,1.8.2,6.72,6.72,0,0,0,5-2.1,6.1,6.1,0,0,0,1.2-1.6,6.75,6.75,0,0,1-.2-1.4,9.91,9.91,0,0,0,1.1-1.7,1.93,1.93,0,0,0,.3-1,5,5,0,0,0,.2-1.2,2.2,2.2,0,0,0-.1-.8,5.36,5.36,0,0,0-1.1-2.7c-.1-.2-.3-.3-.4-.5.1-.2.1-.4.2-.6a4.1,4.1,0,0,0,.1-1.1,7.27,7.27,0,0,0-1.9-4.8A6.48,6.48,0,0,0,21,2.7a11,11,0,0,0-1.8.2,6.67,6.67,0,0,0-3.8-1.5,6,6,0,0,0-3.9,1.4,11,11,0,0,0-1.8-.2A9.07,9.07,0,0,0,5,4.9M8.5,7.6c.4-.4,1-.4,1.8-.2a4.84,4.84,0,0,1,2.2,1.4.1.1,0,0,0,.1.1V9a2,2,0,0,1,.4,1.3,2.69,2.69,0,0,1-.5,1.5,1.87,1.87,0,0,1-1.4.5,1.54,1.54,0,0,1-1.3-.5H9.7A5.12,5.12,0,0,1,8.3,9.5c-.3-1-.2-1.5.2-1.9m2.2,5.7h0a2.2,2.2,0,0,1,1.2.5,1.29,1.29,0,0,1,.4,1.2,1.59,1.59,0,0,1-.4,1.2,1.43,1.43,0,0,1-1.2.6h-.1a4.14,4.14,0,0,1-2.3-.6A1.35,1.35,0,0,1,7.4,15c0-.4.3-.8,1-1.1a3.92,3.92,0,0,1,2.3-.6h0m4.9-4.8a1.41,1.41,0,0,1,1.2-.6c.4.1.6.5.7,1.1a5,5,0,0,1-.1,2.1h0a2.36,2.36,0,0,1-.6.9,1.08,1.08,0,0,1-1.1,0q-.75-.15-.9-.6a1.47,1.47,0,0,1-.2-1.1h-.1A4.18,4.18,0,0,1,15.6,8.5Z"/><path class="cls-4" d="M16.8,7.9q-.6-.15-1.2.6a5.44,5.44,0,0,0-1.1,1.8v.1h.1a1.54,1.54,0,0,0,.2,1.1q.15.45.9.6a2.05,2.05,0,0,0,1.1,0,1.46,1.46,0,0,0,.6-.9h0a5.1,5.1,0,0,0,.1-2.1c-.1-.7-.3-1-.7-1.2m-6.1,5.5h0a3.17,3.17,0,0,0-2.3.5c-.7.3-1,.7-1,1.1a1.35,1.35,0,0,0,.9,1.2,4.14,4.14,0,0,0,2.3.6h.1a1.73,1.73,0,0,0,1.2-.6,1.59,1.59,0,0,0,.4-1.2,1.59,1.59,0,0,0-.4-1.2,1.59,1.59,0,0,0-1.2-.4m-.4-6.1a2.09,2.09,0,0,0-1.8.2,1.59,1.59,0,0,0-.2,1.8,5.12,5.12,0,0,0,1.4,2.3h.1a1.66,1.66,0,0,0,1.3.5,2.39,2.39,0,0,0,1.4-.5,2.46,2.46,0,0,0,.5-1.5,2,2,0,0,0-.4-1.3c-.1,0-.1,0,0-.1a.1.1,0,0,1-.1-.1A9.8,9.8,0,0,0,10.3,7.3Z"/></g></g></g></svg>