<svg xmlns="http://www.w3.org/2000/svg" viewBox="0 0 60.95 60.95"><defs><style>.cls-1{fill:#229c56;}.cls-2{fill:#25a65c;}.cls-3{fill:#29b866;}.cls-4{fill:#2ecc71;}</style></defs><g id="Layer_2" data-name="Layer 2"><g id="Layer_1-2" data-name="Layer 1"><g id="Layer0_222_FILL" data-name="Layer0 222 FILL"><path class="cls-1" d="M45.17,22.68a31.08,31.08,0,0,0,2.6-7.6,1.76,1.76,0,0,0-.2-1.21,1.59,1.59,0,0,0-.9-.9,1.76,1.76,0,0,0-1.19-.2,27.62,27.62,0,0,0-7.31,2.5,42.63,42.63,0,0,0-6-14.4,1.52,1.52,0,0,0-1-.79,2.6,2.6,0,0,0-1.3,0,1.57,1.57,0,0,0-1,.79A39,39,0,0,0,23,15.37a31.08,31.08,0,0,0-7.6-2.6,1.55,1.55,0,0,0-1.2.2,2.25,2.25,0,0,0-1,.9,2.88,2.88,0,0,0-.19,1.3,32.2,32.2,0,0,0,2.59,7.7,40.61,40.61,0,0,0-14.69,6,1.66,1.66,0,0,0-.81,1,3.16,3.16,0,0,0,0,1.3,1.6,1.6,0,0,0,.81,1,38.52,38.52,0,0,0,14.4,6,31.29,31.29,0,0,0-2.4,7.1,1.68,1.68,0,0,0,.19,1.2,2.12,2.12,0,0,0,1,.9,1.75,1.75,0,0,0,1.2.21,36.7,36.7,0,0,0,7.5-2.5,41.48,41.48,0,0,0,6,15,2,2,0,0,0,1,.79,2.85,2.85,0,0,0,1.3,0,1.56,1.56,0,0,0,1-.79,39.45,39.45,0,0,0,6.1-14.9,30.63,30.63,0,0,0,7.2,2.4,2.75,2.75,0,0,0,1.3-.11,2,2,0,0,0,.9-.89,1.64,1.64,0,0,0,.2-1.21,29.87,29.87,0,0,0-2.4-7.1,38.53,38.53,0,0,0,14.7-6.1,2,2,0,0,0,.8-1,2.85,2.85,0,0,0,0-1.3,1.61,1.61,0,0,0-.8-1,38.12,38.12,0,0,0-14.9-6.19m.61-8.1a28.46,28.46,0,0,1-3.7,9.5A39.5,39.5,0,0,1,59,30.28a39.54,39.54,0,0,1-16.6,6.2,26.88,26.88,0,0,1,3.4,8.9,28.14,28.14,0,0,1-9.1-3.5,39.5,39.5,0,0,1-6.2,16.9,39.44,39.44,0,0,1-6.2-17,28.54,28.54,0,0,1-9.4,3.6,30.85,30.85,0,0,1,3.4-9A39.5,39.5,0,0,1,2,30.28a38.08,38.08,0,0,1,16.7-6.1,30.09,30.09,0,0,1-3.8-9.6,26.25,26.25,0,0,1,9.4,3.8,37.36,37.36,0,0,1,6.2-16.5,39.61,39.61,0,0,1,6.2,16.3A27.42,27.42,0,0,1,45.78,14.58Z"/><path class="cls-2" d="M37,39.38c-.1.9-.2,1.8-.31,2.6a28.14,28.14,0,0,0,9.1,3.5,26.88,26.88,0,0,0-3.4-8.9l-2.9.3a11.43,11.43,0,0,1-2.8-.3,10.93,10.93,0,0,1,.31,2.8m-12.7-2.8a11.43,11.43,0,0,1-2.8.3c-1.1-.1-2.1-.2-3.2-.4a28.26,28.26,0,0,0-3.4,9,28.63,28.63,0,0,0,9.4-3.6c-.1-.8-.2-1.7-.3-2.5a11,11,0,0,1,.3-2.8M24,21.38q.14-1.5.3-3a29.07,29.07,0,0,0-9.4-3.8,27.94,27.94,0,0,0,3.8,9.6,27,27,0,0,1,2.8-.4,11.43,11.43,0,0,1,2.8.3,9.67,9.67,0,0,1-.3-2.7m15.5,2.5,2.59.3a29.17,29.17,0,0,0,3.7-9.5,28.44,28.44,0,0,0-9.2,3.5c.1,1,.2,2.1.31,3.2a10.93,10.93,0,0,1-.31,2.8A13.08,13.08,0,0,1,39.48,23.88Z"/><path class="cls-3" d="M21.48,36.88a11.49,11.49,0,0,0,2.8-.3,11.43,11.43,0,0,0-.3,2.8c.09.8.19,1.7.3,2.5a39.44,39.44,0,0,0,6.2,17V34.28c-.2-2.7-1.5-4-3.81-3.9H2a38.55,38.55,0,0,0,16.3,6.1c1.1.2,2.1.3,3.2.4m11.8-3.7a4.68,4.68,0,0,0,3.4,3.5,11.47,11.47,0,0,0,2.8.29l2.9-.29A39.42,39.42,0,0,0,59,30.47H34.28c-1.21-.09-1.61.81-1,2.71h0m-9-14.8-.3,3a11,11,0,0,0,.3,2.8,6.22,6.22,0,0,0,6.2,3.7v-26A40,40,0,0,0,24.28,18.38Z"/><path class="cls-4" d="M42.07,24.18c-.9-.1-1.69-.21-2.59-.3a11.58,11.58,0,0,0-2.81.3,11.45,11.45,0,0,0,.31-2.8c-.1-1.1-.2-2.2-.31-3.2a38.33,38.33,0,0,0-6.19-16.3v26a6.19,6.19,0,0,1-6.2-3.7,11,11,0,0,0-2.8-.3,23.75,23.75,0,0,0-2.81.4A39.77,39.77,0,0,0,2,30.38H26.67c2.4-.1,3.7,1.1,3.81,3.9v24.6A38.41,38.41,0,0,0,36.67,42c.1-.9.2-1.8.31-2.6a10.93,10.93,0,0,0-.31-2.8,4.38,4.38,0,0,1-3.4-3.5h-.1q-.75-2.7,1.2-2.7h24.7A40.36,40.36,0,0,0,42.07,24.18Z"/></g></g></g></svg>