<svg xmlns="http://www.w3.org/2000/svg" viewBox="0 0 23.9 27.2"><defs><style>.cls-1{fill-opacity:0.1;}.cls-2{fill:#916234;}.cls-3{fill:#cd8c4a;}.cls-4{fill:#b17940;}.cls-5{fill:#2abb67;}</style></defs><g id="Layer_2" data-name="Layer 2"><g id="Layer_1-2" data-name="Layer 1"><g id="Layer0_289_MEMBER_0_FILL" data-name="Layer0 289 MEMBER 0 FILL"><path class="cls-1" d="M23.5,10.6a11.31,11.31,0,0,0-5.6-7.2A11.22,11.22,0,0,0,8.8,2.2,11.31,11.31,0,0,0,1.6,7.8,12.06,12.06,0,0,0,.4,16.9,11,11,0,0,0,6,24.1a11.76,11.76,0,0,0,9,1.2,11.17,11.17,0,0,0,7.2-5.5A12,12,0,0,0,23.5,10.6Z"/></g><g id="Layer0_289_MEMBER_1_FILL" data-name="Layer0 289 MEMBER 1 FILL"><path class="cls-2" d="M15.7,1.3A5,5,0,0,0,12.3,0H10.4A5.37,5.37,0,0,0,6.9,1.4h0A5.85,5.85,0,0,0,5.2,4.7V5L4.7,9.2a6.9,6.9,0,0,0-1.5,4.4V14a7.18,7.18,0,0,0,1.5,4.5l.5,4h0a5.3,5.3,0,0,0,1.7,3.3l.1.1a5.26,5.26,0,0,0,3.5,1.3h1.9a4.84,4.84,0,0,0,3.4-1.3,12,12,0,0,0,1.1-1.2,6.31,6.31,0,0,0,.8-2.3l.3-1.5c.1-.7.2-1.3.3-2a8.92,8.92,0,0,0,1.5-3.1c1.6-1.8,1.5-3.5-.1-5a.1.1,0,0,1-.1-.1h0a7.81,7.81,0,0,0-1.1-2A20.48,20.48,0,0,0,18,6.3l-.3-1.5a4.19,4.19,0,0,0-.8-2.2,3.92,3.92,0,0,0-.8-1c-.3-.1-.4-.2-.4-.3M12.2,2a3.23,3.23,0,0,1,2.1.8v.1A3.26,3.26,0,0,1,15.5,5l.3,1.8a25.35,25.35,0,0,1,.4,2.9l.5.5a7.57,7.57,0,0,1,.9,1.8l.4.3a1.55,1.55,0,0,1-.1,2.5l-.2.2a5.89,5.89,0,0,1-1,2.6c-.2.2-.3.4-.5.6a18.66,18.66,0,0,1-.4,2.5l-.3,1.8a3.26,3.26,0,0,1-1.2,2.1,2.88,2.88,0,0,1-2.1.9H10.3a3.28,3.28,0,0,1-2.2-.9A3.58,3.58,0,0,1,7,22.4l-.6-4.6A5.2,5.2,0,0,1,5,14.1v-.4a5.24,5.24,0,0,1,1.4-3.6l.6-5H7A3.09,3.09,0,0,1,8.1,3a3.28,3.28,0,0,1,2.2-.9h1.9Z"/><path class="cls-3" d="M16.2,18.2c-.1.1-.1.1-.2.1A5.55,5.55,0,0,1,12.4,20h-.5A7.06,7.06,0,0,1,7,18.2c-.2-.2-.4-.3-.6-.5L7,22.3a3.58,3.58,0,0,0,1.1,2.2,3.28,3.28,0,0,0,2.2.9h1.9a2.88,2.88,0,0,0,2.1-.9,3.26,3.26,0,0,0,1.2-2.1l.3-1.8a20,20,0,0,0,.4-2.4M14.3,2.8A3.23,3.23,0,0,0,12.2,2H10.3a3.28,3.28,0,0,0-2.2.9A3.6,3.6,0,0,0,7,5H7l-.6,5L7,9.4a7.06,7.06,0,0,1,4.9-1.8.9.9,0,0,1,.5.1A5.55,5.55,0,0,1,16,9.4l.2.2a28.86,28.86,0,0,0-.4-2.9l-.3-1.8a3.81,3.81,0,0,0-1.2-2.1Z"/><path class="cls-4" d="M12,8.5a1.77,1.77,0,0,1,.5-.8,1.09,1.09,0,0,0-.5-.1A7.06,7.06,0,0,0,7.1,9.4l-.6.6a5.24,5.24,0,0,0-1.4,3.6V14a5.68,5.68,0,0,0,1.4,3.7c.2.2.4.3.6.5A7.06,7.06,0,0,0,12,20h.5a1.77,1.77,0,0,1-.5-.8.9.9,0,0,1,.1-.5A3.24,3.24,0,0,1,14,17c.9-.4,1.3-1.4,1.3-3.2S14.9,11,14,10.6A3.51,3.51,0,0,1,12.1,9,.75.75,0,0,1,12,8.5Z"/><path class="cls-5" d="M12.5,7.7a1.77,1.77,0,0,0-.5.8,1.27,1.27,0,0,0,.1.6A3.51,3.51,0,0,0,14,10.7c.9.3,1.3,1.4,1.3,3.2s-.4,2.8-1.3,3.2c-1.1.5-1.7,1-1.9,1.7a.75.75,0,0,0-.1.5,1.37,1.37,0,0,0,.5.8,5.55,5.55,0,0,0,3.6-1.7.35.35,0,0,1,.2-.1c.2-.2.3-.4.5-.6a4.9,4.9,0,0,0,1-2.6l.2-.2a1.55,1.55,0,0,0,.1-2.5l-.4-.3a7.57,7.57,0,0,0-.9-1.8,1.21,1.21,0,0,0-.5-.5l-.2-.2A5,5,0,0,0,12.5,7.7Z"/></g></g></g></svg>