<svg xmlns="http://www.w3.org/2000/svg" viewBox="0 0 17.57 27.4"><defs><style>.cls-1{fill:#758c8e;}.cls-2{fill:#e74c3c;}.cls-3{fill:#89a4a6;}.cls-4{fill:#a3c3c6;}</style></defs><g id="Layer_2" data-name="Layer 2"><g id="Layer_1-2" data-name="Layer 1"><g id="Layer0_288_MEMBER_1_FILL" data-name="Layer0 288 MEMBER 1 FILL"><path class="cls-1" d="M13,1.7a2.16,2.16,0,0,0-.4-.4A5.1,5.1,0,0,0,9.15,0H7.3A5,5,0,0,0,3.85,1.35l-.05,0A5.48,5.48,0,0,0,2.05,4.65,1.23,1.23,0,0,0,2,5L1.5,9.25V9.3a0,0,0,0,0-.05,0,5.75,5.75,0,0,0-1,2v.15A5.42,5.42,0,0,0,0,13.6v.5a5.35,5.35,0,0,0,.1,1.1v.1a4.37,4.37,0,0,0,.15.7,7.31,7.31,0,0,0,1.3,2.6l.05,0,.4,4a.5.5,0,0,0,0,.15A6,6,0,0,0,3.75,26a.16.16,0,0,1,.1.05A5,5,0,0,0,7.3,27.4H9.15a5.18,5.18,0,0,0,3.5-1.35A5.26,5.26,0,0,0,14.4,22.7l.35-1.6a.16.16,0,0,1,.05-.1c.07-.63.15-1.27.25-1.9v-.05a8.46,8.46,0,0,0,1.6-3.2A3.43,3.43,0,0,0,17,15.3l.05-.05a3.94,3.94,0,0,0,.5-1.4,2.07,2.07,0,0,0-.05-.8l-.2-.75a3.69,3.69,0,0,0-.2-.5,4.72,4.72,0,0,0-.7-.9c-.07,0-.1-.07-.1-.1a7.52,7.52,0,0,0-1.1-2,.16.16,0,0,1,0-.1c-.1-.8-.22-1.58-.35-2.35a.16.16,0,0,1-.05-.1L14.4,4.75a4.91,4.91,0,0,0-1.4-3M11.3,2.8v.05A3.16,3.16,0,0,1,12.4,5l.2.8.2,1q.25,1.39.45,2.85a2.25,2.25,0,0,0,.35.45,5.75,5.75,0,0,1,1,1.9l.4.35a2.5,2.5,0,0,1,.4.5l.2.75a2,2,0,0,1-.25.7.48.48,0,0,0-.1.15,1.82,1.82,0,0,0-.2.25l-.25.3A5.93,5.93,0,0,1,13.5,17.8a1.93,1.93,0,0,1-.35.35c-.1.87-.22,1.7-.35,2.5l-.2.9-.2.85a3.16,3.16,0,0,1-1.1,2.15,3.12,3.12,0,0,1-2.15.85H7.3a3.12,3.12,0,0,1-2.15-.85A4.15,4.15,0,0,1,4,22.35l0-.65L3.5,17.8a4.17,4.17,0,0,1-.35-.4,5.07,5.07,0,0,1-.95-1.9A2.34,2.34,0,0,1,2.05,15a7.62,7.62,0,0,1,0-.85v-.5A4.4,4.4,0,0,1,2.3,12v0a4.13,4.13,0,0,1,.8-1.45A4.39,4.39,0,0,1,3.4,10L4,5.7l0-.65V5A3.9,3.9,0,0,1,5.15,2.85,3.12,3.12,0,0,1,7.3,2H9.15A3.26,3.26,0,0,1,11.3,2.8Z"/><path class="cls-2" d="M12.6,21.55a.21.21,0,0,0,0,.15,4.39,4.39,0,0,1-1,1.05,3.5,3.5,0,0,1-2.35.85h-2a3.88,3.88,0,0,1-2.45-.85A3.89,3.89,0,0,1,4,21.7l0,.65a4.15,4.15,0,0,0,1.15,2.2,3.12,3.12,0,0,0,2.15.85H9.15a3.12,3.12,0,0,0,2.15-.85,3.16,3.16,0,0,0,1.1-2.15l.2-.85m-2-9.15a1.48,1.48,0,0,0-1.15-.5H2.3v0A4.4,4.4,0,0,0,2,13.6v.5a7.62,7.62,0,0,0,0,.85,2.34,2.34,0,0,0,.15.55H9.45A1.41,1.41,0,0,0,10.6,15a1.71,1.71,0,0,0,.55-1.25,1.77,1.77,0,0,0-.55-1.3m.7-9.55V2.8A3.26,3.26,0,0,0,9.15,2H7.3a3.12,3.12,0,0,0-2.15.85A3.9,3.9,0,0,0,4,5v0L4,5.7a3.15,3.15,0,0,1,.85-1A3.88,3.88,0,0,1,7.25,3.8h2a3.67,3.67,0,0,1,2.35.8v.05a3.49,3.49,0,0,1,1,1,.16.16,0,0,0,0,.1L12.4,5A3.16,3.16,0,0,0,11.3,2.85Z"/><path class="cls-3" d="M9.45,20a3.12,3.12,0,0,1-.55.05A7.29,7.29,0,0,1,4,18.3a3.37,3.37,0,0,1-.5-.5L4,21.7a3.89,3.89,0,0,0,.85,1.05,3.88,3.88,0,0,0,2.45.85h2a3.5,3.5,0,0,0,2.35-.85,4.39,4.39,0,0,0,1-1.05.21.21,0,0,1,0-.15l.2-.9c.13-.8.25-1.63.35-2.5a.28.28,0,0,1-.15.15,5.45,5.45,0,0,1-1.5,1.15A6.1,6.1,0,0,1,9.45,20M7.2,7.85a7.14,7.14,0,0,1,1.7-.2,1.42,1.42,0,0,1,.55.1,2.83,2.83,0,0,1,.5,0A5.08,5.08,0,0,1,12,8.55a.28.28,0,0,0,.15.15,5.54,5.54,0,0,1,.85.7,1.82,1.82,0,0,0,.25.2q-.2-1.45-.45-2.85l-.2-1a.16.16,0,0,1,0-.1,3.49,3.49,0,0,0-1-1V4.6a3.67,3.67,0,0,0-2.35-.8h-2a3.88,3.88,0,0,0-2.45.85A3.15,3.15,0,0,0,4,5.7L3.4,10,4,9.4A6.8,6.8,0,0,1,7.2,7.85Z"/><path class="cls-4" d="M8.9,7.65a7.14,7.14,0,0,0-1.7.2A6.8,6.8,0,0,0,4,9.4l-.6.6a4.39,4.39,0,0,0-.3.45,4.13,4.13,0,0,0-.8,1.45H9.45a1.48,1.48,0,0,1,1.15.5,1.77,1.77,0,0,1,.55,1.3A1.71,1.71,0,0,1,10.6,15a1.41,1.41,0,0,1-1.15.55H2.2a5.07,5.07,0,0,0,.95,1.9,4.17,4.17,0,0,0,.35.4,3.37,3.37,0,0,0,.5.5,7.29,7.29,0,0,0,4.9,1.75A3.12,3.12,0,0,0,9.45,20a6.1,6.1,0,0,0,2.05-.55A5.45,5.45,0,0,0,13,18.3a.28.28,0,0,0,.15-.15,1.93,1.93,0,0,0,.35-.35A5.93,5.93,0,0,0,14.75,15l.25-.3a1.82,1.82,0,0,1,.2-.25.48.48,0,0,1,.1-.15,2,2,0,0,0,.25-.7l-.2-.75a2.5,2.5,0,0,0-.4-.5l-.4-.35a5.75,5.75,0,0,0-1-1.9,2.25,2.25,0,0,1-.35-.45A1.82,1.82,0,0,1,13,9.4a5.54,5.54,0,0,0-.85-.7A.28.28,0,0,1,12,8.55,5.08,5.08,0,0,0,10,7.8a2.83,2.83,0,0,0-.5,0A1.42,1.42,0,0,0,8.9,7.65Z"/></g></g></g></svg>