<svg xmlns="http://www.w3.org/2000/svg" viewBox="0 0 23.95 27.4"><defs><style>.cls-1{fill-opacity:0.1;}.cls-2{fill:#1f8a4c;}.cls-3{fill:#2ecc71;}.cls-4{fill:#9f6d39;}.cls-5{fill:#c48647;}.cls-6{fill:#ffd0a3;}.cls-7{fill:#2abb67;}</style></defs><g id="Layer_2" data-name="Layer 2"><g id="Layer_1-2" data-name="Layer 1"><g id="Layer0_287_MEMBER_0_FILL" data-name="Layer0 287 MEMBER 0 FILL"><path class="cls-1" d="M23.5,10.6A11.52,11.52,0,0,0,18,3.4a11.63,11.63,0,0,0-9.1-1.25A11.66,11.66,0,0,0,1.6,7.75a11.59,11.59,0,0,0-1.15,9.1A11.45,11.45,0,0,0,6,24.1a11.64,11.64,0,0,0,9.05,1.2,11.28,11.28,0,0,0,7.25-5.55A11.58,11.58,0,0,0,23.5,10.6Z"/></g><g id="Layer0_287_MEMBER_1_FILL" data-name="Layer0 287 MEMBER 1 FILL"><path class="cls-2" d="M17,1.3A5.1,5.1,0,0,0,13.55,0H11.7A5,5,0,0,0,8.25,1.35l-.05,0A5.48,5.48,0,0,0,6.45,4.65a.62.62,0,0,0,0,.25v.3H5q-3.19,0-3.2,3.2v11A2.68,2.68,0,0,0,3.25,22.1,3.18,3.18,0,0,0,5,22.55H6.4v.05a.5.5,0,0,0,0,.15A5.44,5.44,0,0,0,8.2,26a4.78,4.78,0,0,0,2.9,1.4,4,4,0,0,0,.6,0h1.85a3.71,3.71,0,0,0,.85-.1l-.2.05A4.83,4.83,0,0,0,17.15,26l-.1.05a5,5,0,0,0,1.75-3.35l.35-1.55a.92.92,0,0,0,.05-.25.21.21,0,0,1,.05-.15c.1-.57.18-1.13.25-1.7A8,8,0,0,0,21,15.9c1.53-1.7,1.47-3.37-.2-5l-.15-.15a7.52,7.52,0,0,0-1.1-1.95c-.1-.83-.22-1.63-.35-2.4a.16.16,0,0,1-.05-.1L18.8,4.75a4.91,4.91,0,0,0-1.4-3,2.16,2.16,0,0,0-.4-.4M13.55,2a3.26,3.26,0,0,1,2.15.8v.05A3.16,3.16,0,0,1,16.8,5l.35,1.5.05.25q.26,1.39.45,2.85A6.69,6.69,0,0,1,19,11.9l.4.4a1.53,1.53,0,0,1-.05,2.45l-.15.15a5.86,5.86,0,0,1-1.6,3.25c-.07.73-.17,1.47-.3,2.2a1,1,0,0,0-.05.3l-.15.8-.25.95a3.11,3.11,0,0,1-1.1,2.1,2.8,2.8,0,0,1-1.7.85,2.68,2.68,0,0,1-.45,0H11.7a1.83,1.83,0,0,1-.4,0,3,3,0,0,1-1.75-.85A3.9,3.9,0,0,1,8.4,22.35l-.05-.9-.15-.9H5a1.35,1.35,0,0,1-.75-.2,1,1,0,0,1-.45-1V8.4A1.06,1.06,0,0,1,5,7.2H8.2l.05-.7L8.4,5.05V5A3.9,3.9,0,0,1,9.55,2.85,3.12,3.12,0,0,1,11.7,2Z"/><path class="cls-3" d="M11.3,25.35a1.83,1.83,0,0,0,.4,0h1.85a2.68,2.68,0,0,0,.45,0,2.8,2.8,0,0,0,1.7-.85,3.11,3.11,0,0,0,1.1-2.1l.25-.95a13,13,0,0,1-8.7,0l.05.9A3.9,3.9,0,0,0,9.55,24.5a3,3,0,0,0,1.75.85M13.6,7.6a3.47,3.47,0,0,1,1.1.75A.75.75,0,0,1,15,8.7l.05.05A16.47,16.47,0,0,1,14.85,19a.21.21,0,0,1,0,.15.65.65,0,0,0-.15.2,5.85,5.85,0,0,1-1.45.85,4.15,4.15,0,0,1-.85.2.21.21,0,0,0-.15,0h.5a4.4,4.4,0,0,0,.65,0,6.06,6.06,0,0,0,1.1-.2,6.45,6.45,0,0,0,1.75-.85,1.82,1.82,0,0,0,.25-.2A.21.21,0,0,0,16.5,19a13.09,13.09,0,0,0,.15-10.2V8.7a1.08,1.08,0,0,0-.3-.35A5.72,5.72,0,0,0,14.9,7.6h-.05l-.4-.2v.1a2.59,2.59,0,0,0-1.1-.25,4.4,4.4,0,0,0-.65,0h-.55a.46.46,0,0,1,.2,0,1.56,1.56,0,0,1,.85.25V7.4a3.63,3.63,0,0,1,.35.2h0m2.1-4.8A3.26,3.26,0,0,0,13.55,2H11.7a3.12,3.12,0,0,0-2.15.85A3.9,3.9,0,0,0,8.4,5v0L8.25,6.5a13.28,13.28,0,0,1,8.8,0h.1L16.8,5a3.16,3.16,0,0,0-1.1-2.15Z"/><path class="cls-4" d="M12,20.35l-1-.1a9,9,0,0,1-2.25-.85,6.06,6.06,0,0,1-.7-.5l.15,1.65.15.9a13,13,0,0,0,8.7,0l.15-.8a1,1,0,0,1,.05-.3c.13-.73.23-1.47.3-2.2a.28.28,0,0,1-.15.15,7.07,7.07,0,0,1-.95.8,1.82,1.82,0,0,1-.25.2,6.45,6.45,0,0,1-1.75.85,6.06,6.06,0,0,1-1.1.2,4.4,4.4,0,0,1-.65,0h-.5a.49.49,0,0,0-.2,0m5.2-13.6-.05-.25h-.1a13.28,13.28,0,0,0-8.8,0l-.05.7L8,8.7a6.86,6.86,0,0,1,.7-.45,7.14,7.14,0,0,1,2.2-.85,7.25,7.25,0,0,1,1.25-.2h.6a4.4,4.4,0,0,1,.65,0,2.59,2.59,0,0,1,1.1.25V7.4l.4.2h.05a5.72,5.72,0,0,1,1.45.75,1.08,1.08,0,0,1,.3.35v.05a3.24,3.24,0,0,1,.75.65,1.82,1.82,0,0,0,.25.2Q17.45,8.15,17.2,6.75Z"/><path class="cls-5" d="M5,7.2A1.06,1.06,0,0,0,3.8,8.4v11a1,1,0,0,0,.45,1,1.35,1.35,0,0,0,.75.2H8.2L8.05,18.9a2.25,2.25,0,0,1-.45-.35A5.71,5.71,0,0,1,5.4,14v-.45A5.71,5.71,0,0,1,7.6,9,3.63,3.63,0,0,0,8,8.7L8.2,7.2Z"/><path class="cls-6" d="M17.65,9.6a1.82,1.82,0,0,1-.25-.2,3.24,3.24,0,0,0-.75-.65A13.09,13.09,0,0,1,16.5,19a.21.21,0,0,1-.05.15,7.07,7.07,0,0,0,.95-.8.28.28,0,0,0,.15-.15,5.86,5.86,0,0,0,1.6-3.25l.15-.15a1.53,1.53,0,0,0,.05-2.45l-.4-.4A6.69,6.69,0,0,0,17.65,9.6Z"/><path class="cls-7" d="M14.7,8.35a3.47,3.47,0,0,0-1.1-.75h0a3.63,3.63,0,0,0-.35-.2v.1a1.56,1.56,0,0,0-.85-.25.46.46,0,0,0-.2,0H12.1a7.25,7.25,0,0,0-1.25.2,7.14,7.14,0,0,0-2.2.85A6.86,6.86,0,0,0,8,8.7,3.63,3.63,0,0,1,7.6,9a5.71,5.71,0,0,0-2.2,4.55V14a5.71,5.71,0,0,0,2.2,4.55,2.25,2.25,0,0,0,.45.35,6.06,6.06,0,0,0,.7.5,9,9,0,0,0,2.25.85l1,.1a.49.49,0,0,1,.2,0,.21.21,0,0,1,.15,0,4.15,4.15,0,0,0,.85-.2,5.85,5.85,0,0,0,1.45-.85.65.65,0,0,1,.15-.2.21.21,0,0,0,0-.15A16.47,16.47,0,0,0,15,8.75L15,8.7A.75.75,0,0,0,14.7,8.35Z"/></g></g></g></svg>