<svg xmlns="http://www.w3.org/2000/svg" viewBox="0 0 45.2 44.7"><defs><style>.cls-1{fill-opacity:0.1;}.cls-2{fill-opacity:0.15;}.cls-3{fill-opacity:0.2;}</style></defs><g id="Layer_2" data-name="Layer 2"><g id="Layer_1-2" data-name="Layer 1"><g id="Layer0_299_MEMBER_0_FILL" data-name="Layer0 299 MEMBER 0 FILL"><path class="cls-1" d="M13.7,44.7a2.56,2.56,0,0,0,1.9-.8,2.79,2.79,0,0,0,.8-2,2.56,2.56,0,0,0-.8-1.9,2.73,2.73,0,0,0-1.9-.8,2.56,2.56,0,0,0-1.9.8,2.73,2.73,0,0,0-.8,1.9,3,3,0,0,0,.8,2,2.36,2.36,0,0,0,1.9.8M8.4,31.4a4.1,4.1,0,0,0-4.2-4.2A4.1,4.1,0,0,0,0,31.4a4.23,4.23,0,0,0,1.2,3,4.07,4.07,0,0,0,3,1.2,4.07,4.07,0,0,0,3-1.2,4.41,4.41,0,0,0,1.2-3m8.1-9.5a2.56,2.56,0,0,0-.8-1.9,2.7,2.7,0,0,0-4.6,1.9,3,3,0,0,0,.8,2,2.36,2.36,0,0,0,1.9.8,2.73,2.73,0,0,0,1.9-.8,2.79,2.79,0,0,0,.8-2M29.2,10.7a5.66,5.66,0,0,0-4.3,1.8,6,6,0,0,0-1.8,4.4,6.2,6.2,0,0,0,1.8,4.4,6,6,0,0,0,8.6,0,6,6,0,0,0,1.8-4.4,6.2,6.2,0,0,0-1.8-4.4,5.6,5.6,0,0,0-4.3-1.8m-3,3.2a3.69,3.69,0,0,1,2.7-1.1,3.63,3.63,0,0,1,2.6,1.1,3.69,3.69,0,0,1,1.1,2.7,3.63,3.63,0,0,1-1.1,2.6,3.54,3.54,0,0,1-2.6,1,3.94,3.94,0,0,1-2.7-1,3.63,3.63,0,0,1-1.1-2.6,3.69,3.69,0,0,1,1.1-2.7M37.2.8a2.7,2.7,0,0,0-4.6,1.9,2.56,2.56,0,0,0,.8,1.9A2.7,2.7,0,0,0,38,2.7,2.93,2.93,0,0,0,37.2.8Z"/><path class="cls-2" d="M42.5,26.8a2.56,2.56,0,0,0-1.9.8,2.79,2.79,0,0,0-.8,2,3,3,0,0,0,.8,2,2.36,2.36,0,0,0,1.9.8,2.73,2.73,0,0,0,1.9-.8,2.79,2.79,0,0,0,.8-2,3,3,0,0,0-.8-2,2.24,2.24,0,0,0-1.9-.8M11.2,9.8a4.59,4.59,0,0,0-6.6,0,4.45,4.45,0,0,0-1.3,3.3,4.87,4.87,0,0,0,1.3,3.3,4.59,4.59,0,0,0,6.6,0,4.59,4.59,0,0,0,0-6.6m17.6,3a4,4,0,0,0-2.7,1.1A3.69,3.69,0,0,0,25,16.6a3.59,3.59,0,0,0,3.8,3.6,3.54,3.54,0,0,0,2.6-1,3.63,3.63,0,0,0,1.1-2.6,4,4,0,0,0-1.1-2.7A3.63,3.63,0,0,0,28.8,12.8Z"/><path class="cls-3" d="M18.4,36.2a4.59,4.59,0,0,0,6.6,0,4.6,4.6,0,0,0-3.3-7.9,4.87,4.87,0,0,0-3.3,1.3,4.3,4.3,0,0,0-1.3,3.3A4.45,4.45,0,0,0,18.4,36.2Z"/></g></g></g></svg>