<?xml version="1.0" encoding="utf-8"?>
<!-- Generator: Adobe Illustrator 26.0.1, SVG Export Plug-In . SVG Version: 6.00 Build 0)  -->
<svg version="1.1" id="Layer_1" xmlns="http://www.w3.org/2000/svg" xmlns:xlink="http://www.w3.org/1999/xlink" x="0px" y="0px"
	 viewBox="0 0 41.2 43.3" style="enable-background:new 0 0 41.2 43.3;" xml:space="preserve">
<style type="text/css">
	.st0{fill:#F4E4E4;}
	.st1{fill:#FFCC00;}
	.st2{fill:#FF6600;}
	.st3{fill:#606060;}
	.st4{display:none;fill:#606060;}
</style>
<g id="Layer0_298_FILL">
	<g id="XMLID_00000163058975701536297640000000191823447299740807_">
		<g>
			<path class="st0" d="M18.5,26.9c-1.2,0.1-2.3-0.2-3.2-1s-1.5-1.9-1.6-3.1s0.2-2.4,0.9-3.3c0.8-0.9,1.8-1.5,3-1.7
				c1.2-0.1,2.3,0.2,3.2,1c1,0.7,1.7,1.9,1.7,3.1s-0.3,2.4-1,3.3C20.7,26.2,19.6,26.8,18.5,26.9z"/>
			<path class="st1" d="M17.1,8.4c6.4-0.6,12.1,3.4,14.2,9.4c0.1,0.4,0.2,0.8,0.3,1.2c0.2,0.7,0.3,1.4,0.3,2.1
				c0,0.3,0.1,0.5,0.1,0.8c0.2,2.9-0.6,5.7-2.1,8.1c-0.3,0.5-0.7,1-1.1,1.5c-0.9,1.1-1.9,2.1-3,2.9c-1.8,1.3-4.1,2.1-6.4,2.3
				c-3.7,0.4-7.4-0.7-10.2-3.1c-2.9-2.4-4.8-5.8-5-9.5C4.1,23.5,4,23.3,4,23c0-0.4,0-0.9,0-1.3c0.1-3,1.3-5.9,3.2-8.2
				c2.3-3,5.7-4.8,9.4-5.1C16.8,8.4,16.9,8.4,17.1,8.4z M15.2,25.9c0.9,0.8,2.1,1.1,3.2,1c1.2-0.1,2.2-0.7,3-1.7
				c0.8-0.9,1.2-2.1,1-3.3c-0.1-1.3-0.7-2.4-1.7-3.1c-0.9-0.8-2-1.1-3.2-1c-1.2,0.1-2.2,0.7-3,1.7c-0.7,1-1.1,2.2-0.9,3.3
				C13.7,24.1,14.3,25.2,15.2,25.9z"/>
			<path class="st2" d="M40.3,20c0.3,0.8,0.3,1.6-0.1,2.4c-0.4,0.8-1,1.3-1.7,1.6c-0.4,0.1-0.8,0.2-1.2,0.2
				c-0.4,3.6-1.7,7.1-4.1,9.9c-3.1,3.9-7.6,6.4-12.5,6.7c-1.7,0.2-3.5,0.2-5.2-0.1c0,0.2,0,0.3-0.1,0.5c-0.3,0.7-0.9,1.3-1.7,1.6
				s-1.6,0.2-2.3-0.1c-0.8-0.3-1.4-1-1.7-1.8c-0.1-0.3-0.2-0.7-0.2-1.1c0-0.5,0.1-0.9,0.3-1.3C9,38,8.1,37.4,7.3,36.7l-0.5-0.5
				c-1.1,0.4-2.2,0.4-3.3-0.1c-1.1-0.5-1.8-1.4-2.1-2.5c-0.5-1.1-0.5-2.3,0-3.3c0.1-0.3,0.3-0.6,0.5-0.9c-0.7-1.7-1.1-3.5-1.3-5.3
				c-0.6-4.9,1-9.8,4.1-13.7c0.9-0.9,1.7-1.8,2.5-2.6C7.1,7.6,7,7.4,6.9,7.1C6.7,6.4,6.7,5.6,7,4.8C7.4,4,8,3.4,8.8,3.1
				c0.7-0.3,1.6-0.3,2.2,0.1c0.7,0.3,1.3,0.8,1.6,1.5C13.3,4.4,14.2,4.2,15,4c-0.1-0.6-0.1-1.2,0.2-1.8c0.4-0.8,1-1.4,1.7-1.7
				c0.7-0.3,1.6-0.3,2.2,0.1c0.8,0.3,1.4,0.9,1.7,1.7C21,2.7,21.1,3.1,21,3.5C24.2,3.8,27.2,5,29.7,7c0.2-0.1,0.4-0.1,0.6-0.2
				c1.1-0.4,2.2-0.4,3.2,0.1c1.1,0.5,1.9,1.4,2.3,2.5s0.4,2.3-0.1,3.3c-0.2,0.3-0.4,0.6-0.4,1c0.8,1.4,1.3,2.9,1.6,4.4
				c0.6-0.2,1.2-0.1,1.7,0.2C39.4,18.7,40,19.3,40.3,20z M29.8,29.9c1.6-2.4,2.3-5.2,2.1-8.1c0-0.3,0-0.5-0.1-0.8
				c-0.1-0.7-0.2-1.4-0.3-2.1c-0.1-0.4-0.2-0.8-0.3-1.2c-0.8-2.5-2.3-4.7-4.3-6.4C24.1,9,20.4,7.8,16.7,8.3
				c-3.7,0.3-7.1,2.2-9.4,5.1c-1.9,2.4-3.1,5.2-3.2,8.3c0,0.4,0,0.9,0,1.3c0,0.3,0,0.6,0.1,0.9c0.3,3.7,2.1,7.2,5,9.5
				c2.8,2.5,6.5,3.5,10.2,3.1c2.3-0.2,4.5-1.1,6.4-2.4c1.2-0.8,2.1-1.8,3-2.9C29.1,30.9,29.5,30.4,29.8,29.9z"/>
			<path class="st3" d="M19.3,36.5c2.3-0.2,4.5-1,6.4-2.3C23.9,35.5,21.7,36.4,19.3,36.5C15.6,37,12,35.9,9.1,33.4
				c-2.9-2.4-4.8-5.8-5-9.5C4.1,23.6,4,23.3,4,23c0,0.3,0,0.5,0.1,0.8c0.3,3.7,2.1,7.2,5,9.5C12,35.8,15.6,36.9,19.3,36.5z"/>
			<path class="st4" d="M-4.7,18.8C-4.5,20.3-5,21.8-6,23c-0.9,1.2-2.1,2-3.6,2.1c-1.5,0.2-2.9-0.3-4-1.3c-1.2-1-1.8-2.4-2-3.9
				c-0.2-1.6,0.2-3.1,1.2-4.3c1-1.2,2.2-2,3.7-2.1c1.5-0.2,2.9,0.3,4,1.3C-5.5,15.7-4.8,17.2-4.7,18.8z"/>
		</g>
	</g>
</g>
</svg>
