<svg xmlns="http://www.w3.org/2000/svg" viewBox="0 0 42.9 45.2"><defs><style>.cls-1{fill-opacity:0.1;}.cls-2{fill-opacity:0.2;}</style></defs><g id="Layer_2" data-name="Layer 2"><g id="Layer_1-2" data-name="Layer 1"><g id="Layer0_300_FILL" data-name="Layer0 300 FILL"><path class="cls-1" d="M32.2,8.3h-6L21.6,0,16.9,8.3l-8.7-4,1.2,9.5L3.2,16.3l3.2,6.3L0,29.6l9.3,1.8,1.4,5.5h6.1l4.7,8.3,4.6-8.3,8.7,4-1.1-9.5,5.6-2.8-2.8-6,6.4-7-9.3-1.8L32.2,8.3M23,14.1l4.8-3.2.1,5.7L32,17.9l-1.5,3.8L35,25.2l-5.4,2,1.5,5.5-5.5-1.6-2.5,2.6L20,32l-4.8,3.2L15,29.4,11.2,28l1.2-3.6L7.9,20.9l5.4-2-1.6-5.5,5.6,1.5L20,12.3Z"/><path class="cls-2" d="M27.8,10.8,23,14l-2.9-1.8-2.7,2.6-5.6-1.5,1.6,5.5L8,20.8l4.5,3.5-1.2,3.6,3.8,1.4.2,5.8,4.8-3.2,3.1,1.7L25.7,31l5.5,1.6-1.5-5.5,5.4-2-4.5-3.5,1.5-3.8L28,16.5Z"/></g></g></g></svg>