<svg xmlns="http://www.w3.org/2000/svg" viewBox="0 0 12 37.01"><defs><style>.cls-1{fill:#ff9c3c;}.cls-2{fill:#fc0;}.cls-3{fill:#fff;}</style></defs><g id="Layer_2" data-name="Layer 2"><g id="Layer_1-2" data-name="Layer 1"><g id="Layer0_269_FILL" data-name="Layer0 269 FILL"><path class="cls-1" d="M6,0A2,2,0,0,0,4,1.6,171.93,171.93,0,0,0,0,29.75v.1a7.65,7.65,0,0,0,1.35,5A5.41,5.41,0,0,0,6,37q6,.2,6-7.15v-.1A167,167,0,0,0,8,1.55a1.75,1.75,0,0,0-.7-1.1A1.9,1.9,0,0,0,6,0M6,35q-4,0-3.95-5.1A171.51,171.51,0,0,1,6,2a175,175,0,0,1,4,27.85Q10,35,6,35Z"/><path class="cls-2" d="M2.05,29.85Q2,35,6,35t4-5.1A175,175,0,0,0,6,2,171.51,171.51,0,0,0,2.05,29.85m5.6-2.55A5.76,5.76,0,0,1,8.4,30v.3a2,2,0,0,1-.75,1.6,2,2,0,0,1-1.6.75A2.41,2.41,0,0,1,4.3,31.9a2.12,2.12,0,0,1-.7-1.6V30a7.38,7.38,0,0,1,.7-2.7C4.8,26.4,5.39,26,6.05,26S7.22,26.4,7.65,27.3Z"/><path class="cls-3" d="M8.4,30a5.76,5.76,0,0,0-.75-2.7c-.43-.9-1-1.35-1.6-1.35S4.8,26.4,4.3,27.3A7.38,7.38,0,0,0,3.6,30v.3a2.12,2.12,0,0,0,.7,1.6,2.41,2.41,0,0,0,1.75.75,2,2,0,0,0,1.6-.75,2,2,0,0,0,.75-1.6Z"/></g></g></g></svg>