<svg xmlns="http://www.w3.org/2000/svg" viewBox="0 0 17 27.99"><defs><style>.cls-1{fill:#ff9c3c;}.cls-2{fill:#f60;}.cls-3{fill:#fc0;}.cls-4{fill:#fff;}</style></defs><g id="Layer_2" data-name="Layer 2"><g id="Layer_1-2" data-name="Layer 1"><g id="Layer0_267_FILL" data-name="Layer0 267 FILL"><path class="cls-1" d="M7.8.14a1.81,1.81,0,0,0-1.1,1Q.55,13.85,0,21.09v.45Q.71,27.69,8.5,28h.1q7.76-.25,8.4-6.45v-.4q-.49-7.31-6.65-20a2,2,0,0,0-1-1A2.56,2.56,0,0,0,7.8.14m7.25,21.15c-.43,3-2.62,4.62-6.55,4.75q-5.85-.3-6.5-4.75.56-7,6.55-19.3Q14.51,14.29,15.05,21.29Z"/><path class="cls-2" d="M8.5,26c3.93-.13,6.12-1.72,6.55-4.75q-.56-7-6.5-19.3Q2.55,14.25,2,21.29,2.65,25.75,8.5,26m4.3-3.6q-.45,2-4.35,2.15c-2.57-.1-4-.82-4.25-2.15q.34-3.11,4.3-8.6Q12.45,19.35,12.8,22.44Z"/><path class="cls-3" d="M8.45,24.59q3.9-.15,4.35-2.15-.35-3.11-4.3-8.6-3.94,5.51-4.3,8.6c.27,1.33,1.68,2,4.25,2.15m1.75-.95a2,2,0,0,1-1.5.5,2,2,0,0,1-1.5-.5,1.32,1.32,0,0,1-.65-1.2,1.4,1.4,0,0,1,.65-1.2,2.36,2.36,0,0,1,1.55-.5,2.4,2.4,0,0,1,1.5.5,1.4,1.4,0,0,1,.65,1.2A1.43,1.43,0,0,1,10.2,23.64Z"/><path class="cls-4" d="M8.7,24.14a2,2,0,0,0,1.5-.5,1.43,1.43,0,0,0,.7-1.2,1.4,1.4,0,0,0-.65-1.2,2.4,2.4,0,0,0-1.5-.5,2.36,2.36,0,0,0-1.55.5,1.4,1.4,0,0,0-.65,1.2,1.32,1.32,0,0,0,.65,1.2A2,2,0,0,0,8.7,24.14Z"/></g></g></g></svg>