<svg xmlns="http://www.w3.org/2000/svg" viewBox="0 0 20.99 31"><defs><style>.cls-1{fill:#ff9c3c;}.cls-2{fill:#f60;}.cls-3{fill:#fc0;}.cls-4{fill:#fff;}</style></defs><g id="Layer_2" data-name="Layer 2"><g id="Layer_1-2" data-name="Layer 1"><g id="Layer0_270_FILL" data-name="Layer0 270 FILL"><path class="cls-1" d="M12.16.85a1.94,1.94,0,0,0-1-.75A2.05,2.05,0,0,0,9.91.1a1.76,1.76,0,0,0-1,.75A28.08,28.08,0,0,0,4.41,13h-.9a1.89,1.89,0,0,0-1.3.5,2,2,0,0,0-.65,1.25,13.67,13.67,0,0,0,.55,5.75,1.8,1.8,0,0,0-.6.1,1.63,1.63,0,0,0-.95.65,1.73,1.73,0,0,0-.5,1.1q-.64,5.15,5.5,7.55h-.1a11.69,11.69,0,0,0,10.1,0Q21.37,27.5,21,21a2,2,0,0,0-1.7-1.9,12.49,12.49,0,0,0,.2-4.4,2.21,2.21,0,0,0-.7-1.25,1.87,1.87,0,0,0-1.3-.5h-.85A28.32,28.32,0,0,0,12.16.85M14.86,15h2.6q.45,3.11-1.6,8.4L19,21.1q.36,5.1-4.25,6.9a9.64,9.64,0,0,1-8.45,0q-4.54-1.8-4.2-5.55l3.2,1.1C3.8,19.88,3.21,17,3.51,15h2.6Q7.07,6.9,10.51,2,13.92,6.9,14.86,15Z"/><path class="cls-2" d="M17.46,15h-2.6Q13.92,6.9,10.51,2,7.06,6.9,6.11,15H3.51c-.3,2.07.29,4.93,1.75,8.6l-3.2-1.1Q1.72,26.2,6.26,28a9.64,9.64,0,0,0,8.45,0q4.61-1.8,4.25-6.9l-3.1,2.25q2.05-5.3,1.6-8.4m-3.8,9.9c0,1.33-1.06,2-3.2,2s-3.18-.67-3.15-2a36.22,36.22,0,0,1,3.15-10.8A34.94,34.94,0,0,1,13.66,24.85Z"/><path class="cls-3" d="M10.46,26.85c2.14,0,3.2-.67,3.2-2a34.94,34.94,0,0,0-3.2-10.8,36.22,36.22,0,0,0-3.15,10.8c0,1.33,1,2,3.15,2M8.56,25v-.1a2,2,0,0,1,.6-1,2.07,2.07,0,0,1,1.35-.5,1.87,1.87,0,0,1,1.3.5,1.6,1.6,0,0,1,.6,1V25c0,.27-.2.48-.6.65a2.66,2.66,0,0,1-1.3.3,3,3,0,0,1-1.35-.3C8.76,25.48,8.56,25.27,8.56,25Z"/><path class="cls-4" d="M8.56,24.9V25c0,.27.2.48.6.65a3,3,0,0,0,1.35.3,2.66,2.66,0,0,0,1.3-.3c.4-.17.6-.38.6-.65v-.1a1.6,1.6,0,0,0-.6-1,1.87,1.87,0,0,0-1.3-.5,2.07,2.07,0,0,0-1.35.5A2,2,0,0,0,8.56,24.9Z"/></g></g></g></svg>