<svg xmlns="http://www.w3.org/2000/svg" viewBox="0 0 23 34"><defs><style>.cls-1{fill:#ff9c3c;}.cls-2{fill:#f60;}.cls-3{fill:#fc0;}.cls-4{fill:#fff;}</style></defs><g id="Layer_2" data-name="Layer 2"><g id="Layer_1-2" data-name="Layer 1"><g id="Layer0_268_FILL" data-name="Layer0 268 FILL"><path class="cls-1" d="M13.41,1.3a2,2,0,0,0-.75-.95A2,2,0,0,0,11.51,0a1.92,1.92,0,0,0-1.1.35,1.81,1.81,0,0,0-.75,1A73.09,73.09,0,0,1,2.21,15.85s0,0,0,.1a13.17,13.17,0,0,0-.85,13v0A7.83,7.83,0,0,0,7.06,33.5a20.72,20.72,0,0,0,4.45.5,20.41,20.41,0,0,0,4.4-.5H16a7.94,7.94,0,0,0,5.75-4.65v0A13.3,13.3,0,0,0,20.86,16c0-.07-.06-.1-.1-.1A69.82,69.82,0,0,1,13.41,1.3m6.45,26.75a6.1,6.1,0,0,1-4.4,3.5,17.93,17.93,0,0,1-4,.45,18.24,18.24,0,0,1-4-.45,6.12,6.12,0,0,1-4.4-3.5A11.32,11.32,0,0,1,3.86,17,72.39,72.39,0,0,0,11.51,2a70.83,70.83,0,0,0,7.6,15A11.32,11.32,0,0,1,19.86,28.05Z"/><path class="cls-2" d="M15.46,31.55a6.1,6.1,0,0,0,4.4-3.5A11.32,11.32,0,0,0,19.11,17,70.83,70.83,0,0,1,11.51,2,72.39,72.39,0,0,1,3.86,17a11.32,11.32,0,0,0-.75,11.1,6.12,6.12,0,0,0,4.4,3.5,18.24,18.24,0,0,0,4,.45,17.93,17.93,0,0,0,4-.45m1.55-4V27.5a4.41,4.41,0,0,1-3.4,2.55h-.1a10.64,10.64,0,0,1-2,.2,11.49,11.49,0,0,1-2.1-.2l0-.05A4.4,4.4,0,0,1,6,27.6a.16.16,0,0,1,0-.1,5.51,5.51,0,0,1,.45-5.9.21.21,0,0,1,0-.15A21,21,0,0,0,8.46,18.2a2,2,0,0,1,.9-.85,2.07,2.07,0,0,1,1.25-.4h1.7a2.27,2.27,0,0,1,1.3.4,1.71,1.71,0,0,1,.85.85,33.49,33.49,0,0,0,2.05,3.3s.07,0,.1.1A5.51,5.51,0,0,1,17,27.55Z"/><path class="cls-3" d="M17,27.5v.05a5.51,5.51,0,0,0-.4-5.95c0-.07-.06-.1-.1-.1a33.49,33.49,0,0,1-2.05-3.3,1.71,1.71,0,0,0-.85-.85,2.27,2.27,0,0,0-1.3-.4h-1.7a2.07,2.07,0,0,0-1.25.4,2,2,0,0,0-.9.85,21,21,0,0,1-2.05,3.25.21.21,0,0,0,0,.15,5.51,5.51,0,0,0-.45,5.9.16.16,0,0,0,0,.1A4.4,4.4,0,0,0,9.31,30l0,.05a11.49,11.49,0,0,0,2.1.2,10.64,10.64,0,0,0,2-.2h.1A4.41,4.41,0,0,0,17,27.5m-5.55-3.45a3.37,3.37,0,0,1,2.15.7,1.91,1.91,0,0,1,0,3.3,3.37,3.37,0,0,1-2.15.7,3.47,3.47,0,0,1-2.2-.7,2,2,0,0,1,0-3.3A3.47,3.47,0,0,1,11.46,24.05Z"/><path class="cls-4" d="M13.61,24.75a3.37,3.37,0,0,0-2.15-.7,3.47,3.47,0,0,0-2.2.7,2,2,0,0,0,0,3.3,3.47,3.47,0,0,0,2.2.7,3.37,3.37,0,0,0,2.15-.7,1.91,1.91,0,0,0,0-3.3Z"/></g></g></g></svg>