<svg xmlns="http://www.w3.org/2000/svg" viewBox="0 0 38 46"><defs><style>.cls-1{fill:#727272;}.cls-2{fill:#939393;}.cls-3{fill:#8c8c8c;}.cls-4{fill:#9f9f9f;}</style></defs><g id="Layer_2" data-name="Layer 2"><g id="Layer_1-2" data-name="Layer 1"><g id="Layer0_250_FILL" data-name="Layer0 250 FILL"><path class="cls-1" d="M38,10a1.88,1.88,0,0,0-.55-1.4A2,2,0,0,0,36,8H30V2A1.88,1.88,0,0,0,29.45.6,2,2,0,0,0,28,0H23a1.82,1.82,0,0,0-1.4.6A1.82,1.82,0,0,0,21,2V8H17V2A1.88,1.88,0,0,0,16.45.6,2,2,0,0,0,15,0H10A1.82,1.82,0,0,0,8.6.6,1.82,1.82,0,0,0,8,2V8H2a1.82,1.82,0,0,0-1.4.6A1.82,1.82,0,0,0,0,10V28a2,2,0,0,0,.6,1.45L8,36.85V44a2,2,0,0,0,.6,1.45A1.88,1.88,0,0,0,10,46H28a1.89,1.89,0,0,0,2-2V36.85l7.45-7.4A2,2,0,0,0,38,28V10M28,10h8V28l-8,8v8H10V36L2,28V10h8V2h5v8h8V2h5Z"/><path class="cls-2" d="M36,18H2v8H36V18M24.4,36v8H28V36H24.4m-3.6,0H17.2v8h3.6V36M10,36v8h3.6V36H10m0-26h5V2H10v8m18,0V2H23v8Z"/><path class="cls-3" d="M24.4,44V36H20.8v8h3.6M13.6,36v8h3.6V36Z"/><path class="cls-4" d="M10,36H28l8-8V26H2v2l8,8M36,10H2v8H36Z"/></g></g></g></svg>