<svg xmlns="http://www.w3.org/2000/svg" viewBox="0 0 49.75 20"><defs><style>.cls-1{fill:#a69b81;}.cls-2{fill:#ccc;}.cls-3{fill:#ecdcb8;}.cls-4{fill:#d7c9a8;}</style></defs><g id="Layer_2" data-name="Layer 2"><g id="Layer_1-2" data-name="Layer 1"><g id="Layer0_296_FILL" data-name="Layer0 296 FILL"><path class="cls-1" d="M10,0A1.82,1.82,0,0,0,8.6.6l-8,8A1.82,1.82,0,0,0,0,10a2,2,0,0,0,.6,1.45l8,8A1.88,1.88,0,0,0,10,20H21.75q5.15,0,6.75-4.25a4.18,4.18,0,0,0,.25-.65.16.16,0,0,1,.05-.1h5.95a1.89,1.89,0,0,0,2-2V11.4l3.35,1.45A2.41,2.41,0,0,0,41,13l6.85-.1a1.92,1.92,0,0,0,1.4-.6,2,2,0,0,0,.55-1.4V5.75a2,2,0,0,0-.55-1.4,1.92,1.92,0,0,0-1.4-.6l-7.4-.2a1.76,1.76,0,0,0-.7.15L36,5H28.8a6.91,6.91,0,0,0-7-5H10M47.75,10.9,40.9,11,36.25,9H27.6c0,.67,0,1.33,0,2h7.15v2h-7.5a12.68,12.68,0,0,1-.4,1.45c-.07.2-.13.38-.2.55q-1.2,3-4.9,3H10L2,10l8-8H21.75A5.09,5.09,0,0,1,27,6q.15.5.3,1h9l4.1-1.45,7.4.2Z"/><path class="cls-2" d="M34.75,13V11H27.6l-.35,2Z"/><path class="cls-3" d="M36.25,9V7H27.3q-.15-.55-.3-1A5.09,5.09,0,0,0,21.75,2H10L2,10l8,8H21.75q3.7,0,4.9-3c.07-.17.13-.35.2-.55a12.68,12.68,0,0,0,.4-1.45l.35-2c0-.67,0-1.33,0-2h8.65M20.9,5.2a3,3,0,0,1,3.15,2.35,8.32,8.32,0,0,1-.1,5.1A2.86,2.86,0,0,1,20.9,14.8H15.25a3.45,3.45,0,0,1-.6-.05c-1.17-.2-1.75-1-1.75-2.35V7.6c0-1.37.58-2.15,1.75-2.35a3.45,3.45,0,0,1,.6,0Z"/><path class="cls-4" d="M24.05,7.55A3,3,0,0,0,20.9,5.2H15.25a3.45,3.45,0,0,0-.6,0c-1.17.2-1.75,1-1.75,2.35v4.8c0,1.37.58,2.15,1.75,2.35a3.45,3.45,0,0,0,.6.05H20.9A2.86,2.86,0,0,0,24,12.65a8.32,8.32,0,0,0,.1-5.1M40.9,11l6.85-.1V5.75l-7.4-.2L36.25,7V9Z"/></g></g></g></svg>