<svg xmlns="http://www.w3.org/2000/svg" viewBox="0 0 47 20"><defs><style>.cls-1{fill:#2ecc71;}.cls-2{fill:#ccc;}.cls-3{fill:#1f8a4c;}.cls-4{fill:#999;}.cls-5{fill:#747474;}</style></defs><g id="Layer_2" data-name="Layer 2"><g id="Layer_1-2" data-name="Layer 1"><g id="Layer0_291_FILL" data-name="Layer0 291 FILL"><path class="cls-1" d="M36,9V7H23.55q-.15-.55-.3-1A5.09,5.09,0,0,0,18,2H6Q2,2,2,6v8q0,4,4,4H18q3.7,0,4.9-3c.07-.17.13-.35.2-.55A12.68,12.68,0,0,0,23.5,13l.35-2c0-.67,0-1.33,0-2H36M20.3,7.55a8.32,8.32,0,0,1-.1,5.1,2.86,2.86,0,0,1-3.05,2.15H11.5a3.45,3.45,0,0,1-.6-.05c-1.17-.2-1.75-1-1.75-2.35V7.6c0-1.37.58-2.15,1.75-2.35a3.45,3.45,0,0,1,.6,0h5.65A3,3,0,0,1,20.3,7.55Z"/><path class="cls-2" d="M20.2,12.65a8.32,8.32,0,0,0,.1-5.1A3,3,0,0,0,17.15,5.2H11.5a3.45,3.45,0,0,0-.6,0c-1.17.2-1.75,1-1.75,2.35v4.8c0,1.37.58,2.15,1.75,2.35a3.45,3.45,0,0,0,.6.05h5.65a2.86,2.86,0,0,0,3.05-2.15M31,13V11H23.85l-.35,2Z"/><path class="cls-3" d="M33,11h1.7L36,9H23.85c0,.67,0,1.33,0,2H33M18,0H6Q0,0,0,6v8q0,6,6,6H18q5.51,0,7-4.95v0a.16.16,0,0,1,.05-.1H22.9q-1.2,3-4.9,3H6q-4,0-4-4V6Q2,2,6,2H18a5.09,5.09,0,0,1,5.25,4q.15.5.3,1H36l-.7-2H25.05A6.91,6.91,0,0,0,18,0Z"/><path class="cls-4" d="M31,11v2H23.5a12.68,12.68,0,0,1-.4,1.45c-.07.2-.13.38-.2.55H31a1.89,1.89,0,0,0,2-2V11H31m13.9-.25L45,6l-7.25-.45L36,7V9l2,2Z"/><path class="cls-5" d="M46.5,4.65A1.93,1.93,0,0,0,45.15,4L37.9,3.55A2,2,0,0,0,36.5,4L35.3,5,36,7l1.75-1.45L45,6l-.1,4.75L38,11,36,9l-1.3,2h.45l1.45,1.45a2.29,2.29,0,0,0,.7.4,2,2,0,0,0,.8.15l6.9-.25a2.14,2.14,0,0,0,1.35-.6,1.83,1.83,0,0,0,.55-1.35L47,6.05A2.14,2.14,0,0,0,46.5,4.65Z"/></g></g></g></svg>