<svg xmlns="http://www.w3.org/2000/svg" viewBox="0 0 38 53"><defs><style>.cls-1{fill:#9f9f9f;}.cls-2{fill:#939393;}.cls-3{fill:#727272;}.cls-4{fill:#e74c3c;}.cls-5{fill:#bdd6db;}.cls-6{fill:#af392d;}</style></defs><g id="Layer_2" data-name="Layer 2"><g id="Layer_1-2" data-name="Layer 1"><g id="Layer0_251_FILL" data-name="Layer0 251 FILL"><path class="cls-1" d="M36,30V26H2v4H36m0,7V34H2v3l8,8H28l8-8M23.2,14H2v8H36V14H23.2Z"/><path class="cls-2" d="M28,51V45H10v6H28m8-17V30H2v4H36m0-8V22H2v4Z"/><path class="cls-3" d="M9.2,14l-.15-2H2a1.82,1.82,0,0,0-1.4.6A1.82,1.82,0,0,0,0,14V37a2,2,0,0,0,.6,1.45L8,45.85V51a2,2,0,0,0,.6,1.45A1.88,1.88,0,0,0,10,53H28a1.89,1.89,0,0,0,2-2V45.85l7.45-7.4A2,2,0,0,0,38,37V14a2,2,0,0,0-1.9-2H29l-.1,2H36V37l-8,8v6H10V45L2,37V14H9.2M15,12l-.1,2H23.2l-.15-2H15Z"/><path class="cls-4" d="M23,11.35l.05.65H29l.05-.65q0-1.1-.15-2.1a19,19,0,0,0-.8-3.75A9.94,9.94,0,0,0,26,2a9.43,9.43,0,0,0-2,3.5,17,17,0,0,0-.85,3.75q-.11,1-.15,2.1m-8,0q0-1.1-.15-2.1a19,19,0,0,0-.8-3.75A9.94,9.94,0,0,0,12,2a9.43,9.43,0,0,0-2,3.5,17,17,0,0,0-.85,3.75q-.11,1-.15,2.1l.05.65H15Z"/><path class="cls-5" d="M23.05,12l.15,2h5.65l.1-2h-5.9m-8.2,2,.1-2H9.05l.15,2Z"/><path class="cls-6" d="M10.55.65A8.07,8.07,0,0,0,9,2.7,13.13,13.13,0,0,0,7.85,5.5c-.07.23-.13.48-.2.75a19.06,19.06,0,0,0-.5,2.95v.05C7.08,9.88,7,10.57,7,11.3v.2l0,.5h2L9,11.35q0-1.1.15-2.1A17,17,0,0,1,10,5.5,9.43,9.43,0,0,1,12,2a9.94,9.94,0,0,1,2.05,3.5,19,19,0,0,1,.8,3.75q.11,1,.15,2.1L15,12H17v-.7c0-.73-.08-1.42-.15-2.05a20.4,20.4,0,0,0-.5-3c-.07-.27-.13-.52-.2-.75A13.13,13.13,0,0,0,15,2.7,8.68,8.68,0,0,0,13.5.65,1.66,1.66,0,0,0,12.55.1a1.6,1.6,0,0,0-1.1,0,1.43,1.43,0,0,0-.9.55M29,2.7A8.68,8.68,0,0,0,27.5.65,1.66,1.66,0,0,0,26.55.1a1.6,1.6,0,0,0-1.1,0,1.43,1.43,0,0,0-.9.55A8.07,8.07,0,0,0,23,2.7a13.13,13.13,0,0,0-1.15,2.8,20.17,20.17,0,0,0-.7,3.75c-.07.63-.12,1.32-.15,2.05v.2l.05.5h2L23,11.35q0-1.1.15-2.1A17,17,0,0,1,24,5.5,9.43,9.43,0,0,1,26,2a9.94,9.94,0,0,1,2.05,3.5,19,19,0,0,1,.8,3.75q.11,1,.15,2.1L29,12H31v-.7c0-.73-.08-1.42-.15-2.05a20.17,20.17,0,0,0-.7-3.75A13.13,13.13,0,0,0,29,2.7Z"/></g></g></g></svg>