<svg xmlns="http://www.w3.org/2000/svg" viewBox="0 0 12.63 34.48"><defs><style>.cls-1{fill:#e74c3c;}.cls-2{fill:#af392d;}.cls-3{fill:#809395;}.cls-4{fill:#bdd6db;}</style></defs><g id="Layer_2" data-name="Layer 2"><g id="Layer_1-2" data-name="Layer 1"><g id="Layer0_260_FILL" data-name="Layer0 260 FILL"><path class="cls-1" d="M4.55,30.93l-.15-2v-.16l-.5-7.09A44.51,44.51,0,0,0,2,29.38l2.55,1.55M6.3,2q-2.85,3-3.1,9.5H9.4Q9.15,5,6.3,2m1.75,29,2.55-1.55a44.51,44.51,0,0,0-1.9-7.7l-.5,7.09v.16Z"/><path class="cls-2" d="M3.9,21.68l-2-.25A43.93,43.93,0,0,0,.05,29.07,1.61,1.61,0,0,0,.2,30.23a1.91,1.91,0,0,0,.75.84l1.7,1.06,1.9-1.2L2,29.38a44.51,44.51,0,0,1,1.9-7.7m6.85-.25-2.05.25a44.51,44.51,0,0,1,1.9,7.7L8.05,30.93,10,32.13l1.65-1.06a2.23,2.23,0,0,0,.8-.84,2,2,0,0,0,.15-1.16,50.18,50.18,0,0,0-1.85-7.64M9.4,11.48h2v-.05Q11.1,4,7.75.63a1.69,1.69,0,0,0-.9-.56,2.07,2.07,0,0,0-1,0,1.67,1.67,0,0,0-1,.56Q1.51,4,1.2,11.43v.05h2Q3.46,5,6.3,2,9.15,5,9.4,11.48Z"/><path class="cls-3" d="M1.2,11.48v.15l.7,9.8,2,.25-.7-10.2h-2M8,34.48a2,2,0,0,0,1.4-.55,2,2,0,0,0,.6-1.3l.05-.5-1.95-1.2L8,32.48H4.65l-.1-1.55-1.9,1.2v.5a1.88,1.88,0,0,0,.65,1.3,1.87,1.87,0,0,0,1.35.55H8m3.45-23h-2l-.7,10.2,2.05-.25.65-9.8Z"/><path class="cls-4" d="M8.2,28.93v-.16l.5-7.09.7-10.2H3.2l.7,10.2.5,7.09v.16l.15,2,.1,1.55H8l.1-1.55Z"/></g></g></g></svg>