<svg xmlns="http://www.w3.org/2000/svg" viewBox="0 0 18.98 39.98"><defs><style>.cls-1{fill:#e74c3c;}.cls-2{fill:#809395;}.cls-3{fill:#af392d;}.cls-4{fill:#bdd6db;}.cls-5{fill:#9fb5b8;}</style></defs><g id="Layer_2" data-name="Layer 2"><g id="Layer_1-2" data-name="Layer 1"><g id="Layer0_261_FILL" data-name="Layer0 261 FILL"><path class="cls-1" d="M12.94,38h2.6L17,31.13,13.74,28l-2.15,6.61L12.94,38m-9.5,0H6l1.35-3.35L5.29,28,2,31.13,3.44,38M9.49,13.57a15.92,15.92,0,0,0,4.7-.39Q13,5.62,9.49,2,6,5.63,4.79,13.18A15.92,15.92,0,0,0,9.49,13.57Z"/><path class="cls-2" d="M11.59,34.63H7.39l1.35,2h1.5l1.35-2M4.49,16.18v-.8c.1-.77.2-1.51.3-2.2h-2c-.1.63-.18,1.28-.25,2a.92.92,0,0,0,0,.25v.94c0,.37,0,.76,0,1.16v0c.07,2.94.23,5.81.5,8.61q0,.54.15,1.14l2.1.75c-.1-.69-.18-1.4-.25-2.09-.27-2.77-.43-5.59-.5-8.45,0-.44,0-.87,0-1.3m9.7-3c.13.69.23,1.43.3,2.2v2.1q-.11,4.29-.55,8.45c-.07.69-.13,1.4-.2,2.09l2.1-.75c0-.4.07-.78.1-1.14q.45-4.2.55-8.61V15.23c-.07-.74-.15-1.42-.25-2.05Z"/><path class="cls-3" d="M15.84,27.27l-2.1.75L17,31.13,15.54,38h-2.6l-1.35-3.35-1.35,2,.85,2.1a1.8,1.8,0,0,0,.75.9,1.89,1.89,0,0,0,1.1.35h2.6a1.88,1.88,0,0,0,1.25-.46,1.9,1.9,0,0,0,.7-1.09l1.45-6.86a2.19,2.19,0,0,0-.05-1.05,2,2,0,0,0-.5-.84l-2.55-2.41M5.29,28l-2.1-.75L.64,29.68a1.74,1.74,0,0,0-.55.84,2.19,2.19,0,0,0,0,1.05l1.45,6.86a1.9,1.9,0,0,0,.7,1.09A1.88,1.88,0,0,0,3.44,40H6a2.15,2.15,0,0,0,1.15-.35,1.91,1.91,0,0,0,.7-.9l.85-2.1-1.35-2L6,38H3.44L2,31.13,5.29,28M9,.07A2.18,2.18,0,0,0,8,.63q-3.9,3.95-5.2,12.25v0a1,1,0,0,1,0,.25h2Q6,5.62,9.49,2q3.55,3.65,4.7,11.2h2a1.3,1.3,0,0,0,0-.36v.06Q14.89,4.57,10.94.57a1.84,1.84,0,0,0-.9-.5A2.07,2.07,0,0,0,9,.07Z"/><path class="cls-4" d="M4.54,17.48c.07,2.86.23,5.68.5,8.45h8.9q.45-4.16.55-8.45v-1.3a28.9,28.9,0,0,1-5,.25,28.9,28.9,0,0,1-5-.25C4.52,16.61,4.54,17,4.54,17.48Z"/><path class="cls-5" d="M5,25.93c.07.69.15,1.4.25,2.09l2.1,6.61h4.2L13.74,28c.07-.69.13-1.4.2-2.09H5m9.45-10.55c-.07-.77-.17-1.51-.3-2.2a15.92,15.92,0,0,1-4.7.39,15.92,15.92,0,0,1-4.7-.39c-.1.69-.2,1.43-.3,2.2v.8a28.9,28.9,0,0,0,5,.25,28.9,28.9,0,0,0,5-.25Z"/></g></g></g></svg>