<svg xmlns="http://www.w3.org/2000/svg" viewBox="0 0 54.5 47.88"><defs><style>.cls-1{fill:#6c8587;}.cls-2{fill:#90adaf;}.cls-3{fill:#87a6a8;}.cls-4{fill:#a7c9cb;}.cls-5{fill:#9ab9bb;}</style></defs><g id="Layer_2" data-name="Layer 2"><g id="Layer_1-2" data-name="Layer 1"><g id="Layer0_225_FILL" data-name="Layer0 225 FILL"><path class="cls-1" d="M0,10.7a1.53,1.53,0,0,0,.4,1L7.6,21.8,4.4,33.6A1.81,1.81,0,0,0,4.6,35a2,2,0,0,0,.9.9l13.2,6.9c.1.1.3.1.4.2l17.8,4.8a1.39,1.39,0,0,0,.9,0,6.89,6.89,0,0,0,.8-.3L52.2,37a1.79,1.79,0,0,0,.5-.7,1.45,1.45,0,0,0,.2-.7l1.6-14.8a3.19,3.19,0,0,0-.3-1.4L46.6,8.8a1.34,1.34,0,0,0-.7-.6A1.64,1.64,0,0,0,45,8l-10.9.1L18.4.2a1.64,1.64,0,0,0-1-.2,1.08,1.08,0,0,0-.8.2L.9,8.6a3,3,0,0,0-.8.8A5.28,5.28,0,0,0,0,10.7m2-.2L17.6,2.1l16.1,8,11.4-.2,7.6,10.6L51.1,35.2,37.6,45.6,19.8,40.8,6.6,33.9,10,21.3Z"/><path class="cls-2" d="M45.1,9.9l-6.2,7.4,3.4,4.8-.7,6.6L51,35.2l1.6-14.7L45.1,9.9M27.4,31.3l-5.9-3.1L23,22.5l-13.2-1L6.4,34.1,19.6,41Z"/><path class="cls-3" d="M27.4,31.3l-7.8,9.6,17.8,4.8L50.9,35.3l-9.4-6.5-6.2,4.7Z"/><path class="cls-4" d="M26.5,13.8l-7,3.8L23,22.4l-1.5,5.7,5.9,3.1,8.1,2.1,6.2-4.7.7-6.6L39,17.2l-5.2.1Z"/><path class="cls-5" d="M19.5,17.6l7-3.8,7.2,3.6,5.2-.1,6.2-7.4-11.4.2-16.1-8L2,10.5,9.8,21.4l13.2,1Z"/></g></g></g></svg>