<svg xmlns="http://www.w3.org/2000/svg" viewBox="0 0 35 34"><defs><style>.cls-1{fill:#6c8587;}.cls-2{fill:#90adaf;}.cls-3{fill:#89a4a6;}.cls-4{fill:#a7c9cb;}.cls-5{fill:#9bbbbd;}</style></defs><g id="Layer_2" data-name="Layer 2"><g id="Layer_1-2" data-name="Layer 1"><g id="Layer0_223_FILL" data-name="Layer0 223 FILL"><path class="cls-1" d="M22.6.7a1.79,1.79,0,0,0-.7-.5A2.92,2.92,0,0,0,21,0H10A1.69,1.69,0,0,0,9,.3a2,2,0,0,0-.8.8l-8,15a1.64,1.64,0,0,0-.2,1v10a2.14,2.14,0,0,0,.4,1.2,2.1,2.1,0,0,0,1.1.7l19,5H32a2.39,2.39,0,0,0,1.4-.5,1.76,1.76,0,0,0,.6-1.3l1-15a2.3,2.3,0,0,0-.4-1.4L22.6.7M10,1.9H21l12,15-1,15H21l-19-5v-10Z"/><path class="cls-2" d="M10,18.9l-8-2v10l8-6v-2m11-17-4,8,8,10v4l7,8,1-15Z"/><path class="cls-3" d="M32,31.9l-7-8-15-3-8,6,19,5Z"/><path class="cls-4" d="M17,9.9H15l-5,9v2l15,3v-4Z"/><path class="cls-5" d="M15,9.9h2l4-8H10l-8,15,8,2Z"/></g></g></g></svg>