<svg xmlns="http://www.w3.org/2000/svg" viewBox="0 0 40.84 41.11"><defs><style>.cls-1{fill:#6c8587;}.cls-2{fill:#90adaf;}.cls-3{fill:#89a4a6;}.cls-4{fill:#a7c9cb;}.cls-5{fill:#9bbbbd;}</style></defs><g id="Layer_2" data-name="Layer 2"><g id="Layer_1-2" data-name="Layer 1"><g id="Layer0_224_FILL" data-name="Layer0 224 FILL"><path class="cls-1" d="M1,12.54a2,2,0,0,0-.8.8,1.39,1.39,0,0,0-.2,1.1l1.2,18.8a2.1,2.1,0,0,0,.4,1.1,2,2,0,0,0,1.1.6L25.64,41a2.44,2.44,0,0,0,1.2,0,2.54,2.54,0,0,0,1-.8l12.7-20a2.66,2.66,0,0,0,.3-1.2,1.61,1.61,0,0,0-.5-1.1L26.54.74a1.85,1.85,0,0,0-1.2-.7,1.91,1.91,0,0,0-1.3.2L1,12.54m1,1.7L24.94,2l13.8,17.2L26,39.24l-22.9-6.1Z"/><path class="cls-2" d="M3.14,33l9.3-7.3.3-6-10.8-5.4L3.14,33M24.94,2l-3.4,12.6,4.8,5-4.7,8.6,4.4,11,12.7-20Z"/><path class="cls-3" d="M26,39.14l-4.4-11-9.2-2.5-9.3,7.3Z"/><path class="cls-4" d="M21.64,28.14l4.7-8.6-4.8-5-8.8,5.1-.3,6Z"/><path class="cls-5" d="M21.54,14.54l3.4-12.6L2,14.14l10.8,5.4Z"/></g></g></g></svg>