<svg xmlns="http://www.w3.org/2000/svg" viewBox="0 0 44 57"><defs><style>.cls-1{fill:#e74c3c;}.cls-2{fill:#d24536;}.cls-3{fill:#af392d;}.cls-4{fill:#adadad;}.cls-5{fill:#9f9f9f;}.cls-6{fill:#939393;}.cls-7{fill:#727272;}</style></defs><g id="Layer_2" data-name="Layer 2"><g id="Layer_1-2" data-name="Layer 1"><g id="Layer0_271_FILL" data-name="Layer0 271 FILL"><path class="cls-1" d="M26,55h8l4-8L26,55M10,55h8L6,47l4,8M26,23H18L2,31V47H42V31Z"/><path class="cls-2" d="M38,47H6l12,8h8l12-8m4-16-6-6-2-2H26l16,8M18,23H10L8,25,2,31Z"/><path class="cls-3" d="M44,31a1.88,1.88,0,0,0-.55-1.4L36,22.15V25l6,6V47H38l-4,8H10L6,47H2V31l6-6V22.15L.6,29.6A1.82,1.82,0,0,0,0,31V47a2,2,0,0,0,.6,1.45A1.88,1.88,0,0,0,2,49H4.75L8.2,55.9A2.05,2.05,0,0,0,10,57H34a2.05,2.05,0,0,0,1.8-1.1L39.25,49H42a1.89,1.89,0,0,0,2-2Z"/><path class="cls-4" d="M17.5,19V2h-3V19h3m12-17h-3V19h3Z"/><path class="cls-5" d="M14.5,2H12V19h2.5V2M20,2H17.5V19H20V2m6.5,17V2H24V19h2.5M32,2H29.5V19H32Z"/><path class="cls-6" d="M29.5,19H10v4H34V19H29.5Z"/><path class="cls-7" d="M29.5,2H32V19h2v4l2,2V19a1.88,1.88,0,0,0-.55-1.4A2,2,0,0,0,34,17V2A1.88,1.88,0,0,0,33.45.6,2,2,0,0,0,32,0H24a1.82,1.82,0,0,0-1.4.6A1.75,1.75,0,0,0,22,1.9,1.82,1.82,0,0,0,21.45.6,2,2,0,0,0,20,0H12a1.82,1.82,0,0,0-1.4.6A1.82,1.82,0,0,0,10,2V17a1.82,1.82,0,0,0-1.4.6A1.82,1.82,0,0,0,8,19v6l2-2V19h2V2h8V19h4V2h5.5Z"/></g></g></g></svg>