<svg xmlns="http://www.w3.org/2000/svg" viewBox="0 0 52 52"><defs><style>.cls-1{fill:#758c8e;}.cls-2{fill:#a3c3c6;}.cls-3{fill:#94b1b4;}.cls-4{fill:#89a4a6;}</style></defs><g id="Layer_2" data-name="Layer 2"><g id="Layer_1-2" data-name="Layer 1"><g id="Layer0_247_FILL" data-name="Layer0 247 FILL"><path class="cls-1" d="M43.45.6A2,2,0,0,0,42,0H10A1.82,1.82,0,0,0,8.6.6l-8,8A1.82,1.82,0,0,0,0,10V42a2,2,0,0,0,.6,1.45l8,8A1.88,1.88,0,0,0,10,52H42a2,2,0,0,0,1.45-.55l8-8A2,2,0,0,0,52,42V10a1.88,1.88,0,0,0-.55-1.4l-8-8M42,2l8,8V42l-8,8H10L2,42V10l8-8Z"/><path class="cls-2" d="M10,50l8-8-8-8L2,42l8,8m24-8,8,8,8-8-8-8-8,8M18,10,10,2,2,10l8,8,8-8m32,0L42,2l-8,8,8,8Z"/><path class="cls-3" d="M10,50H42l-8-8H18l-8,8M42,18V34l8,8V10l-8,8M10,34V18L2,10V42l8-8M34,10l8-8H10l8,8Z"/><path class="cls-4" d="M10,18V34l8,8H34l8-8V18l-8-8H18Z"/></g></g></g></svg>