<svg xmlns="http://www.w3.org/2000/svg" viewBox="0 0 42 55"><defs><style>.cls-1{fill:#2bbf6a;}.cls-2{fill:#939393;}.cls-3{fill:#219853;}.cls-4{fill:#2ecc71;}.cls-5{fill:#9f9f9f;}.cls-6{fill:#adadad;}.cls-7{fill:#727272;}</style></defs><g id="Layer_2" data-name="Layer 2"><g id="Layer_1-2" data-name="Layer 1"><g id="Layer0_262_FILL" data-name="Layer0 262 FILL"><path class="cls-1" d="M21,53H32l8-8L21,53M10,53H21L2,45l8,8M40,32V28H36l4,4M6,28H2v4Z"/><path class="cls-2" d="M8,24v4H34V24H8Z"/><path class="cls-3" d="M6,28V26H2a1.82,1.82,0,0,0-1.4.6A1.82,1.82,0,0,0,0,28V45a2,2,0,0,0,.6,1.45l8,8A1.88,1.88,0,0,0,10,55H32a2,2,0,0,0,1.45-.55l8-8A2,2,0,0,0,42,45V28a1.88,1.88,0,0,0-.55-1.4A2,2,0,0,0,40,26H36v2h4V45l-8,8H10L2,45V28Z"/><path class="cls-4" d="M8,28H6L2,32V45l19,8,19-8V32l-4-4H8Z"/><path class="cls-5" d="M18.5,2H16V24h2.5V2M26,2H23.5V24H26Z"/><path class="cls-6" d="M23.5,2h-5V24h5Z"/><path class="cls-7" d="M18.5,2H26V24h8v4h2V24a1.88,1.88,0,0,0-.55-1.4A2,2,0,0,0,34,22H28V2A1.88,1.88,0,0,0,27.45.6,2,2,0,0,0,26,0H16a1.82,1.82,0,0,0-1.4.6A1.82,1.82,0,0,0,14,2V22H8a1.82,1.82,0,0,0-1.4.6A1.82,1.82,0,0,0,6,24v4H8V24h8V2Z"/></g></g></g></svg>