<svg xmlns="http://www.w3.org/2000/svg" viewBox="0 0 52 52"><defs><style>.cls-1{fill:#758c8e;}.cls-2{fill:#94b1b4;}.cls-3{fill:#a3c3c6;}.cls-4{fill:#89a4a6;}</style></defs><g id="Layer_2" data-name="Layer 2"><g id="Layer_1-2" data-name="Layer 1"><g id="Layer0_248_FILL" data-name="Layer0 248 FILL"><path class="cls-1" d="M52,26a1.88,1.88,0,0,0-.55-1.4l-24-24A2,2,0,0,0,26,0a1.82,1.82,0,0,0-1.4.6l-24,24A1.82,1.82,0,0,0,0,26a2,2,0,0,0,.6,1.45l24,24A1.88,1.88,0,0,0,26,52a2,2,0,0,0,1.45-.55l24-24A2,2,0,0,0,52,26M2,26,26,2,50,26,26,50Z"/><path class="cls-2" d="M26,42v8L50,26H42L26,42M10,26,26,10V2L2,26Z"/><path class="cls-3" d="M10,26H2L26,50V42L10,26M26,10,42,26h8L26,2Z"/><path class="cls-4" d="M26,10,10,26,26,42,42,26Z"/></g></g></g></svg>