<svg xmlns="http://www.w3.org/2000/svg" viewBox="0 0 52 52"><defs><style>.cls-1{fill:#758c8e;}.cls-2{fill:#a3c3c6;}.cls-3{fill:#94b1b4;}.cls-4{fill:#89a4a6;}</style></defs><g id="Layer_2" data-name="Layer 2"><g id="Layer_1-2" data-name="Layer 1"><g id="Layer0_246_FILL" data-name="Layer0 246 FILL"><path class="cls-1" d="M8.6.6l-8,8A1.82,1.82,0,0,0,0,10V42a2,2,0,0,0,.6,1.45l8,8A1.88,1.88,0,0,0,10,52H42a2,2,0,0,0,1.45-.55l8-8A2,2,0,0,0,52,42V10a1.88,1.88,0,0,0-.55-1.4l-8-8A2,2,0,0,0,42,0H10A1.82,1.82,0,0,0,8.6.6M2,10l8-8H42l8,8V42l-8,8H10L2,42Z"/><path class="cls-2" d="M2,42l8,8V42H2m40,8,8-8H42v8M14,14V38H38V14H14m36-4L42,2v8h8M10,2,2,10h8Z"/><path class="cls-3" d="M42,50V42H10v8H42m8-40H42V42h8V10M10,2v8H42V2H10m0,8H2V42h8Z"/><path class="cls-4" d="M42,10H10V42H42V10M14,38V14H38V38Z"/></g></g></g></svg>