<svg xmlns="http://www.w3.org/2000/svg" viewBox="0 0 52 52"><defs><style>.cls-1{fill:#758c8e;}.cls-2{fill:#a3c3c6;}.cls-3{fill:#94b1b4;}.cls-4{fill:#89a4a6;}</style></defs><g id="Layer_2" data-name="Layer 2"><g id="Layer_1-2" data-name="Layer 1"><g id="Layer0_249_FILL" data-name="Layer0 249 FILL"><path class="cls-1" d="M43.45.6A2,2,0,0,0,42,0H2A1.82,1.82,0,0,0,.6.6,1.82,1.82,0,0,0,0,2V42a2,2,0,0,0,.6,1.45l8,8A1.88,1.88,0,0,0,10,52H50a2,2,0,0,0,1.45-.55,5.05,5.05,0,0,0,.35-.5,2.38,2.38,0,0,0,.2-1V10a1.88,1.88,0,0,0-.55-1.4l-8-8M42,2l8,8V50H10L2,42V2Z"/><path class="cls-2" d="M2,42l8,8,8-8-8-8L2,42M34,10l8,8,8-8L42,2Z"/><path class="cls-3" d="M34,10l8-8H2V42l8-8V10H34m16,0-8,8V42H18l-8,8H50Z"/><path class="cls-4" d="M42,18l-8-8H10V34l8,8H42Z"/></g></g></g></svg>